<svg version="1.1" id="Layer_1" xmlns="http://www.w3.org/2000/svg" xmlns:xlink="http://www.w3.org/1999/xlink" x="0px" y="0px"
	 width="100%" viewBox="0 0 800 730" enable-background="new 0 0 800 730" xml:space="preserve">
<path fill="#E22727" opacity="1.000000" stroke="none" 
	d="
M0.999997,428.000000 
	C1.000000,362.312439 1.000000,296.624878 1.468657,230.468903 
	C24.629530,229.946411 47.321747,229.892334 70.471756,229.896927 
	C74.935898,229.922318 78.942230,229.889038 83.420158,229.910995 
	C96.192345,229.927521 108.492935,229.888824 121.265884,229.903503 
	C125.711342,229.924759 129.684464,229.892624 134.125275,229.924423 
	C312.382141,229.991837 490.171326,229.995590 667.960510,229.993332 
	C669.124390,229.993317 670.288208,229.909805 671.877319,229.920502 
	C676.411987,229.930405 680.521423,229.885086 685.055298,229.907379 
	C697.689697,229.933029 709.899658,229.891068 722.562866,229.907394 
	C727.009094,229.923843 731.002014,229.882004 735.459961,229.904831 
	C748.683594,229.979248 761.443237,230.094894 774.200378,229.962036 
	C782.882996,229.871613 788.624329,234.929626 793.904419,240.770737 
	C796.498413,243.640335 798.648865,246.910873 801.000000,250.000000 
	C801.000000,315.687561 801.000000,381.375122 800.531372,447.531128 
	C782.755371,448.039032 765.448059,448.078461 747.771851,447.902496 
	C743.226868,447.584229 739.050903,447.481384 734.419189,447.290161 
	C722.177551,447.267700 710.391724,447.333557 698.114380,447.309509 
	C693.801880,447.271027 689.980713,447.322479 685.695190,447.282104 
	C684.398132,447.170471 683.565552,447.133362 682.732971,447.133362 
	C496.298615,447.131012 309.864258,447.130707 123.429893,447.141785 
	C121.938202,447.141876 120.446526,447.297699 118.503693,447.290161 
	C114.282677,447.261993 110.512802,447.324524 106.296204,447.303802 
	C94.082405,447.250824 82.315315,447.281097 70.120850,447.243958 
	C65.700432,447.461090 61.707397,447.745605 57.263691,448.020691 
	C47.990498,448.007263 39.106297,448.634583 30.366806,447.780731 
	C24.386898,447.196472 17.944954,445.610596 12.948915,442.488983 
	C8.908420,439.964355 6.758017,434.448944 3.675885,430.330048 
	C2.983116,429.404327 1.902211,428.769012 0.999997,428.000000 
M124.616409,316.679077 
	C140.569931,337.194885 156.509460,357.721588 172.511719,378.199310 
	C173.470901,379.426758 174.863251,381.023407 176.171021,381.140411 
	C180.381317,381.516968 184.646408,381.280609 188.827911,381.280609 
	C188.827911,348.776642 188.827911,317.022491 188.827911,285.153381 
	C183.286469,285.153381 178.050201,285.153381 172.180664,285.153381 
	C172.180664,306.780029 172.180664,328.115082 172.180664,350.610260 
	C170.733109,348.884460 170.099884,348.179443 169.521103,347.432220 
	C154.319824,327.807129 139.137482,308.167267 123.899239,288.570953 
	C122.826050,287.190796 121.428825,285.202698 120.043022,285.080811 
	C115.165718,284.651855 110.227615,284.914154 105.339012,284.914154 
	C105.339012,317.423706 105.339012,349.177460 105.339012,381.076172 
	C110.905418,381.076172 116.167877,381.076172 122.103035,381.076172 
	C122.103035,359.557800 122.103035,338.273010 123.090652,316.715454 
	C123.415115,316.608826 123.739578,316.502197 124.616409,316.679077 
M377.767883,365.257721 
	C381.157379,354.869507 384.546875,344.481262 388.412842,332.632690 
	C392.777679,345.976105 396.579437,357.836121 400.540222,369.642761 
	C404.943237,382.767639 405.006348,382.746887 419.048767,381.737823 
	C419.210358,381.726227 419.366730,381.641632 419.795929,381.505127 
	C427.581177,357.535034 435.417175,333.408752 443.465912,308.627472 
	C438.461212,308.627472 434.168518,308.796417 429.897308,308.566315 
	C427.186310,308.420227 426.087677,309.559753 425.413757,311.989288 
	C423.367493,319.365906 421.196808,326.708923 418.996918,334.041748 
	C416.781311,341.426758 414.472595,348.783813 411.781250,357.528931 
	C407.315369,343.887421 403.339569,331.739044 399.361176,319.591492 
	C395.247040,307.029419 395.245911,307.029358 381.925629,308.282074 
	C381.765839,308.297119 381.613861,308.395752 381.195374,308.556152 
	C376.102203,324.324432 370.954163,340.262726 365.317230,357.714539 
	C360.208435,340.375427 355.532654,324.505951 350.950684,308.954773 
	C344.993256,308.954773 339.578430,308.954773 333.667145,308.954773 
	C341.290558,332.816895 348.743378,356.243896 356.351746,379.620270 
	C356.676483,380.617981 358.385406,381.694183 359.542389,381.810547 
	C371.551178,383.018158 371.557770,382.965912 375.528046,371.652863 
	C376.188629,369.770538 376.832214,367.882263 377.767883,365.257721 
M653.952881,381.310638 
	C654.856140,381.232971 655.759399,381.155304 657.302063,381.022675 
	C647.203308,366.421997 637.503174,352.397675 626.665161,336.728180 
	C636.537842,327.934021 646.416809,319.134186 656.295837,310.334351 
	C655.917847,309.768585 655.539856,309.202850 655.161865,308.637115 
	C650.240601,308.637115 645.310242,308.819214 640.401367,308.573181 
	C637.122742,308.408875 634.820740,309.462799 632.613525,311.893463 
	C625.006714,320.270599 617.201843,328.468262 609.444946,336.708466 
	C608.648254,337.554749 607.667664,338.228058 605.949341,339.674530 
	C605.949341,319.318268 605.949341,300.103851 605.949341,280.906982 
	C600.100464,280.906982 594.720825,280.906982 589.451660,280.906982 
	C589.451660,314.553284 589.451660,347.780640 589.451660,381.081604 
	C595.063416,381.081604 600.335266,381.081604 606.133301,381.081604 
	C606.133301,376.917328 606.656494,372.880463 606.028198,369.031555 
	C604.564819,360.066650 610.332764,355.529358 616.300476,350.433136 
	C620.754456,356.820679 625.741577,362.561493 629.111328,369.131775 
	C634.346863,379.339996 641.883789,383.517822 653.952881,381.310638 
M516.424194,321.104248 
	C511.246094,314.647034 504.603607,310.461121 496.624756,308.357666 
	C480.763336,304.176117 464.174133,309.481659 454.891785,321.697510 
	C445.516235,334.036011 444.281525,351.212341 451.852112,363.982880 
	C462.968048,382.733917 488.363373,388.793427 506.829132,377.100861 
	C525.852539,365.055206 530.200562,341.042419 516.424194,321.104248 
M250.064514,308.146362 
	C229.383636,304.060272 213.068573,312.914642 206.872269,331.587250 
	C200.583481,350.538574 208.051590,370.895416 224.213516,378.856598 
	C240.899170,387.075745 262.559326,382.622498 271.543762,368.821136 
	C268.422394,366.053192 265.257690,363.246826 262.061859,360.412872 
	C253.170578,368.551361 243.674286,371.871094 232.789719,366.869720 
	C226.381882,363.925354 222.962814,358.443268 221.890015,350.895813 
	C239.807602,350.895813 257.218109,350.895813 274.538879,350.895813 
	C278.093323,332.349548 267.882843,314.270782 250.064514,308.146362 
M325.887512,366.276825 
	C322.694427,366.633392 319.509399,367.145264 316.306458,367.312378 
	C310.627838,367.608582 307.118103,365.458069 306.991302,360.674835 
	C306.662048,348.257477 306.880737,335.825562 306.880737,322.853851 
	C313.468170,322.853851 319.702728,322.853851 325.804810,322.853851 
	C325.804810,317.868744 325.804810,313.438202 325.804810,308.552673 
	C319.443665,308.552673 313.342407,308.552673 306.525665,308.552673 
	C306.525665,301.569214 306.525665,295.021454 306.525665,288.674133 
	C300.557037,288.674133 295.326843,288.674133 289.570465,288.674133 
	C289.570465,295.475006 289.570465,301.874542 289.570465,308.715759 
	C286.254395,308.715759 283.484467,308.715759 280.673035,308.715759 
	C280.673035,313.726654 280.673035,318.260864 280.673035,323.141693 
	C283.832886,323.141693 286.609894,323.141693 289.845551,323.141693 
	C289.845551,336.283966 289.808838,349.071320 289.855621,361.858398 
	C289.904602,375.258148 296.210144,381.973114 309.445465,382.559021 
	C312.242279,382.682831 315.106415,382.281860 317.878204,381.782440 
	C325.299408,380.445251 325.930237,379.597260 325.929199,372.141449 
	C325.928955,370.475403 325.926331,368.809357 325.887512,366.276825 
M672.498291,325.061737 
	C668.036194,325.061737 663.574036,325.061737 658.894897,325.061737 
	C658.894897,330.352692 658.894897,335.252869 658.894897,340.661560 
	C667.600342,340.661560 676.004089,340.661560 684.970215,340.661560 
	C684.970215,349.545227 684.970215,357.932220 684.970215,366.398315 
	C690.593689,366.398315 695.631409,366.398315 701.109802,366.398315 
	C701.109802,357.595154 701.109802,349.175781 701.109802,340.326233 
	C709.985657,340.326233 718.411743,340.326233 726.954224,340.326233 
	C726.954224,335.124817 726.954224,330.370880 726.954224,324.985657 
	C718.168457,324.985657 709.637634,324.985657 700.664917,324.985657 
	C700.664917,315.955933 700.664917,307.552490 700.664917,299.216370 
	C695.259827,299.216370 690.321045,299.216370 684.866455,299.216370 
	C684.866455,307.829773 684.866455,316.219299 684.866455,325.061737 
	C680.731384,325.061737 677.108398,325.061737 672.498291,325.061737 
M551.438477,308.639771 
	C546.833496,308.639771 542.228577,308.639771 537.429382,308.639771 
	C537.429382,333.095032 537.429382,356.957703 537.429382,380.980591 
	C543.074890,380.980591 548.447449,380.980591 554.174255,380.980591 
	C554.174255,371.364594 554.053040,362.075867 554.200317,352.791412 
	C554.477295,335.324036 562.480835,326.326843 578.789185,324.872314 
	C579.074768,324.846863 579.342834,324.624512 579.727112,324.443024 
	C579.727112,318.723663 579.727112,312.976074 579.727112,307.176208 
	C567.953552,306.701385 560.285522,312.708069 554.174011,323.610474 
	C554.174011,318.637024 554.325256,315.351074 554.093689,312.092285 
	C554.010254,310.917603 553.007141,309.808228 551.438477,308.639771 
z"/>
<path fill="#000000" opacity="1.000000" stroke="none" 
	d="
M0.999997,428.468658 
	C1.902211,428.769012 2.983116,429.404327 3.675885,430.330048 
	C6.758017,434.448944 8.908420,439.964355 12.948915,442.488983 
	C17.944954,445.610596 24.386898,447.196472 30.366806,447.780731 
	C39.106297,448.634583 47.990498,448.007263 57.357536,448.409790 
	C58.608959,451.329468 59.178265,453.899017 60.045296,456.363861 
	C65.285912,471.262024 70.202560,486.291870 76.024597,500.961334 
	C79.632011,510.050720 84.411156,518.709961 89.096817,527.327148 
	C94.266144,536.833801 99.723434,546.200317 105.449455,555.382080 
	C109.452896,561.801636 114.000778,567.895996 118.529655,573.968445 
	C121.568481,578.043091 124.993301,581.830505 128.257812,585.736084 
	C129.769592,587.544739 131.315231,589.325012 132.836456,591.125916 
	C133.386322,591.776855 133.848297,592.513855 134.456894,593.101196 
	C136.289276,594.869202 138.357285,596.426697 139.998810,598.351624 
	C143.066788,601.949219 145.776611,605.853821 148.869019,609.428528 
	C151.260330,612.192871 153.837784,614.855347 156.652023,617.175537 
	C158.840637,618.979980 161.296387,620.814026 164.398788,618.118042 
	C173.827393,609.924500 183.184479,601.623535 193.029556,593.955017 
	C195.075470,592.361450 199.801224,592.064270 202.068054,593.341614 
	C206.887207,596.057129 210.842911,600.275513 215.261490,603.738953 
	C220.604599,607.927063 225.732651,612.525269 231.536972,615.960571 
	C242.980392,622.733398 254.621994,629.243896 266.562622,635.083862 
	C278.349518,640.848450 290.314423,646.530029 302.729095,650.661926 
	C319.858551,656.363098 337.196991,661.702942 355.407867,663.273987 
	C366.535400,664.233948 377.591888,666.517395 388.720795,666.849915 
	C407.231720,667.402954 425.730347,667.197876 444.189392,664.226624 
	C455.040771,662.479858 465.903320,660.963684 476.554749,658.242615 
	C482.875641,656.627869 489.293213,655.177002 495.373047,652.875183 
	C510.543335,647.131775 525.852783,641.600098 540.518921,634.729614 
	C552.485046,629.123901 563.866577,622.116882 575.008179,614.954712 
	C583.329285,609.605652 591.013184,603.211670 598.677917,596.914246 
	C603.762329,592.736877 609.591980,591.668030 611.780151,593.381897 
	C616.106323,596.770264 620.634216,599.933777 624.713379,603.597046 
	C630.303955,608.617676 635.474243,614.105774 641.051514,619.142212 
	C641.755554,619.777954 644.348450,619.432495 645.189453,618.626648 
	C650.816284,613.235046 656.372498,607.748108 661.631287,601.999084 
	C669.010559,593.931946 676.367065,585.817749 683.254456,577.334900 
	C689.352478,569.824219 695.151428,562.013672 700.428772,553.909851 
	C705.741760,545.751282 710.592590,537.243652 715.026672,528.572449 
	C721.257690,516.387268 727.506287,504.149902 732.664490,491.493561 
	C738.452698,477.291565 743.034241,462.597748 748.140747,448.117920 
	C765.448059,448.078461 782.755371,448.039032 800.531372,447.999786 
	C801.000000,542.269226 801.000000,636.538452 801.000000,731.000000 
	C680.979187,731.000000 560.958252,731.000000 440.319733,730.584229 
	C441.213654,729.779053 442.704559,729.234619 444.240692,729.030823 
	C448.094482,728.519226 451.968689,728.161682 455.726746,727.754211 
	C455.726746,724.961914 455.726746,722.697205 455.726746,719.709473 
	C447.792877,720.417114 440.183167,721.095825 432.029144,721.823120 
	C431.628937,718.604309 431.243347,715.502930 430.851898,712.354553 
	C438.392120,711.728455 445.093323,711.171997 452.422607,710.563354 
	C451.783752,707.478821 451.213470,704.725342 450.671997,702.111084 
	C443.483276,702.835266 437.004395,703.487976 430.296875,704.163696 
	C429.771515,700.837341 429.338074,698.093018 428.920990,695.452271 
	C437.104736,694.484863 444.410309,693.621277 451.803833,692.747253 
	C451.966553,690.028442 452.108612,687.655273 452.295380,684.535217 
	C441.137848,685.675293 430.107635,686.802368 419.226929,687.914185 
	C420.535400,702.855896 421.767700,716.927979 423.000000,731.000000 
	C419.638702,731.000000 416.277435,731.000000 412.458069,730.537476 
	C411.527832,716.197266 411.055695,702.319580 410.580322,688.348145 
	C407.731995,688.348145 405.023621,688.348145 402.000000,688.348145 
	C402.000000,702.795715 402.000000,716.897827 402.000000,731.000000 
	C391.645782,731.000000 381.291534,731.000000 370.283295,730.583008 
	C370.270111,724.497070 370.910950,718.828064 371.565094,713.041565 
	C377.342560,713.424561 382.942352,713.608032 388.490265,714.243958 
	C391.193024,714.553772 392.112610,713.712219 391.997162,711.209717 
	C391.922882,709.598877 391.850342,707.987915 391.767181,706.161255 
	C385.097260,705.609558 378.740448,705.083740 371.811493,704.510620 
	C372.364319,701.290527 372.897064,698.187561 373.458649,694.916382 
	C381.025238,695.531189 388.182037,696.112671 395.820709,696.733276 
	C396.263275,694.044006 396.717621,691.283020 397.211304,688.282898 
	C385.732483,687.403015 375.017761,686.581665 364.410553,685.768616 
	C363.184509,700.654907 362.040741,714.542603 360.979492,727.428040 
	C363.164795,728.982788 364.582397,729.991394 366.000000,731.000000 
	C244.413025,731.000000 122.826065,731.000000 1.000000,731.000000 
	C1.000000,630.312561 1.000000,529.624939 0.999997,428.468658 
M281.012970,704.389832 
	C281.377411,706.387634 281.741852,708.385376 282.205017,710.924316 
	C283.847351,711.724915 286.133057,712.940430 288.510345,713.937317 
	C289.240540,714.243408 290.479523,714.273743 291.016205,713.844116 
	C291.570129,713.400757 291.890228,712.172852 291.730408,711.410156 
	C290.691864,706.454407 289.494659,701.531921 288.320709,696.474915 
	C288.607605,696.366821 289.032684,696.144409 289.484802,696.045471 
	C296.727203,694.459534 301.085632,689.712524 301.976349,682.416748 
	C302.566101,677.586121 298.868744,671.714661 293.091949,669.070251 
	C286.453613,666.031311 279.660309,663.330994 272.493500,660.296997 
	C267.149048,674.389771 262.079773,687.756897 256.961761,701.252502 
	C259.852722,702.535950 262.620605,703.764771 265.294403,704.951782 
	C267.188995,700.201843 268.983765,695.702209 271.379883,689.694824 
	C274.473114,692.668884 277.076324,694.600708 278.885101,697.106140 
	C280.148071,698.855469 280.323364,701.390076 281.012970,704.389832 
M492.442657,683.910278 
	C489.682709,682.426270 486.852966,679.571655 484.175537,679.708008 
	C475.096588,680.170410 466.071564,681.690796 456.834076,682.830688 
	C460.097107,697.952026 463.132904,712.020386 466.193939,726.205688 
	C471.034424,724.989929 474.927307,723.402161 478.909546,723.132019 
	C488.900513,722.454285 495.461823,717.732788 499.209015,708.463989 
	C502.444305,700.461426 499.821075,689.527771 492.442657,683.910278 
M601.062988,674.468933 
	C604.390930,672.453735 607.683533,670.376709 611.057983,668.442749 
	C613.812683,666.863892 616.909607,665.767700 619.370483,663.839478 
	C620.580322,662.891541 621.703613,659.861633 621.099121,658.964417 
	C619.671875,656.846069 617.185913,655.441223 615.747986,654.257935 
	C611.430176,657.549316 608.460388,660.505981 604.916809,662.374451 
	C596.762817,666.673950 595.652954,666.114136 593.386658,658.569641 
	C598.929565,655.119141 604.447876,651.684021 609.932068,648.270142 
	C608.542175,645.697815 607.269287,643.342041 605.727051,640.487671 
	C599.562317,644.349060 593.582153,648.094910 587.761292,651.740906 
	C586.258484,649.314026 584.771423,646.912598 583.107544,644.225586 
	C587.799622,641.327209 592.150818,638.417542 596.706909,635.875183 
	C604.202209,631.692566 602.663147,630.778503 597.765686,624.726440 
	C591.423950,629.014343 585.248291,633.684692 578.606812,637.555725 
	C570.235046,642.435425 570.066528,642.157043 575.081909,649.308289 
	C575.652466,650.121765 576.379883,650.829895 576.911926,651.664978 
	C582.750732,660.830017 588.565247,670.010559 594.475403,679.327332 
	C596.836609,677.631531 598.682251,676.305969 601.062988,674.468933 
M248.342422,668.081909 
	C246.799911,667.165283 245.241608,666.274170 243.717804,665.327454 
	C238.760849,662.247742 238.623016,660.810791 242.967667,655.951599 
	C249.986420,659.312988 257.071075,662.705994 264.192017,666.116333 
	C264.898926,664.342957 265.296295,662.773376 266.100250,661.451050 
	C267.674805,658.861267 267.447357,657.484619 264.209595,656.562195 
	C261.179474,655.698914 258.267029,654.258911 255.477402,652.750061 
	C249.989166,649.781311 244.621979,646.588745 238.703918,643.202271 
	C231.760254,656.614807 225.184784,669.316162 218.601578,682.032471 
	C227.891693,687.189758 236.608810,692.102173 245.437302,696.805481 
	C246.234787,697.230347 248.437378,696.660034 248.805161,695.944397 
	C249.952789,693.711182 250.532608,691.186157 250.959030,689.900574 
	C243.892609,685.940979 237.557373,682.391113 230.803558,678.606689 
	C231.873856,676.426086 233.079239,673.970215 234.733627,670.599548 
	C239.561066,673.238892 244.327301,675.563599 248.784363,678.377930 
	C251.888458,680.337952 254.275208,680.504272 255.824112,676.961792 
	C256.987976,674.299927 256.033600,672.193970 253.176270,670.993652 
	C251.687317,670.368103 250.365112,669.345581 248.342422,668.081909 
M203.856995,671.999878 
	C207.395355,671.999878 210.933716,671.999878 214.339935,671.999878 
	C214.339935,668.341431 214.339935,665.806213 214.339935,663.479492 
	C209.951096,663.004395 204.767792,663.790283 201.389740,661.682739 
	C198.276459,659.740234 195.304977,654.620667 195.443222,651.022400 
	C195.743317,643.211609 202.439423,636.225220 210.348190,636.967224 
	C216.243439,637.520203 222.114700,643.427917 221.714340,649.194580 
	C224.202240,648.765015 226.876984,648.864319 228.876221,647.750793 
	C230.104355,647.066772 231.361237,643.911072 230.786453,642.919983 
	C226.833664,636.104065 222.487869,629.193787 213.622192,628.410645 
	C208.515900,627.959595 203.041748,627.731079 198.213348,629.098206 
	C192.497757,630.716492 189.741043,636.033508 187.764236,641.602539 
	C182.900192,655.305542 188.749207,668.639099 203.856995,671.999878 
M548.857178,667.532349 
	C552.705322,658.495728 559.672485,656.302002 568.511719,659.137573 
	C569.514832,655.914124 570.327820,653.301453 571.145386,650.674133 
	C556.906006,647.065613 547.238281,651.552490 540.781067,663.364014 
	C536.430420,671.322205 540.324463,687.167969 551.151123,692.245361 
	C559.021729,695.936401 565.786072,694.848145 573.051453,691.155945 
	C577.538391,688.875610 582.885315,682.823120 582.917969,678.324463 
	C582.923523,677.567688 582.325684,676.437073 581.686279,676.114929 
	C579.828186,675.178650 577.807495,674.565308 575.850525,673.825317 
	C576.109009,674.265076 576.367554,674.704834 576.626099,675.144653 
	C572.935730,678.470581 569.437256,682.057617 565.453552,684.984192 
	C564.012756,686.042542 561.092651,686.282349 559.394897,685.577454 
	C553.703003,683.213684 546.417908,677.280029 548.857178,667.532349 
M322.010712,710.676147 
	C323.779297,703.123596 325.547882,695.571045 327.211029,688.468689 
	C332.117035,689.018250 336.322479,689.489380 340.521545,689.959778 
	C341.060883,687.317505 341.512939,685.102844 342.129333,682.083130 
	C330.519989,679.346619 318.968079,676.623657 307.280090,673.868652 
	C306.710419,682.256958 306.713501,682.244751 313.952118,684.071838 
	C315.517426,684.466980 317.051788,684.984619 318.311340,685.359680 
	C315.719635,696.799316 313.131500,708.223206 310.498444,719.845398 
	C313.559631,720.289062 316.552216,720.722778 319.438507,721.141113 
	C320.405121,717.475525 321.193115,714.487366 322.010712,710.676147 
M345.105591,695.744202 
	C343.488495,705.680908 341.871368,715.617676 340.237793,725.655457 
	C344.622131,726.231934 347.562408,726.618469 349.448730,726.866516 
	C351.869659,712.302185 354.180542,698.399719 356.558746,684.092285 
	C353.437073,683.704163 350.348175,683.320129 347.457520,682.960693 
	C346.719757,687.546448 346.122345,691.259583 345.105591,695.744202 
M526.454224,686.914734 
	C523.861755,683.246521 520.103333,684.793518 517.248413,685.724060 
	C515.952209,686.146484 514.894836,689.953125 515.166199,692.037415 
	C515.987549,698.344421 521.503662,696.593506 527.019592,697.596863 
	C527.019592,694.060791 527.019592,690.797913 526.454224,686.914734 
z"/>
<path fill="#000000" opacity="1.000000" stroke="none" 
	d="
M70.013962,229.838257 
	C47.321747,229.892334 24.629530,229.946411 1.468657,230.000244 
	C1.000000,153.722717 1.000000,77.445435 1.000000,1.000000 
	C123.020844,1.000000 245.041763,1.000000 367.645203,1.419309 
	C367.553741,2.219924 366.916779,2.834101 366.200287,2.947952 
	C353.441437,4.975391 340.609222,6.608644 327.927490,9.031622 
	C318.468658,10.838835 309.045349,13.166267 299.885406,16.126106 
	C285.763550,20.689299 271.847015,25.901142 257.922760,31.052422 
	C254.879120,32.178425 252.247711,34.370651 249.290390,35.787952 
	C242.639893,38.975231 235.710220,41.631733 229.262756,45.174992 
	C223.849030,48.150166 219.017654,52.167583 213.821167,55.559177 
	C202.660843,62.843178 190.782867,69.205467 180.401810,77.458458 
	C168.638443,86.810379 157.905762,97.533127 147.266647,108.200127 
	C139.455276,116.031960 132.462738,124.687729 125.225067,133.079620 
	C123.321487,135.286774 122.009331,137.996414 120.168655,140.266998 
	C116.531471,144.753662 111.951988,148.654297 109.109993,153.575623 
	C99.037811,171.017029 89.304375,188.665787 79.923653,206.489166 
	C75.999367,213.945328 73.280754,222.036041 70.013962,229.838257 
z"/>
<path fill="#000000" opacity="1.000000" stroke="none" 
	d="
M801.000000,249.531342 
	C798.648865,246.910873 796.498413,243.640335 793.904419,240.770737 
	C788.624329,234.929626 782.882996,229.871613 774.200378,229.962036 
	C761.443237,230.094894 748.683594,229.979248 735.436646,229.533508 
	C726.918152,206.963120 716.225830,186.135162 703.647034,166.286789 
	C699.024231,158.992218 693.669067,152.162216 688.658264,145.112991 
	C685.249451,140.317444 682.260986,135.151917 678.378723,130.778366 
	C669.333130,120.587914 659.875977,110.761948 650.549500,100.822121 
	C648.675903,98.825302 646.755127,96.844193 644.661255,95.088203 
	C639.192871,90.502266 633.581848,86.086937 628.092407,81.525635 
	C621.607117,76.136818 615.610840,70.037071 608.646118,65.375832 
	C597.699768,58.049900 586.254150,51.432278 574.765259,44.967442 
	C566.378845,40.248440 557.646423,36.123402 548.945618,31.991842 
	C543.498169,29.405142 537.906738,27.065332 532.232544,25.024576 
	C521.521484,21.172297 510.823700,17.197371 499.891724,14.073585 
	C491.689331,11.729790 483.154297,10.493892 474.722168,9.024001 
	C462.482483,6.890373 450.197266,5.018573 437.950989,2.921070 
	C437.212646,2.794608 436.646362,1.663589 436.000000,1.000000 
	C557.579956,1.000000 679.159851,1.000000 801.000000,1.000000 
	C801.000000,83.687378 801.000000,166.375031 801.000000,249.531342 
z"/>
<path fill="#6E777F" opacity="1.000000" stroke="none" 
	d="
M435.535339,1.000000 
	C436.646362,1.663589 437.212646,2.794608 437.950989,2.921070 
	C450.197266,5.018573 462.482483,6.890373 474.722168,9.024001 
	C483.154297,10.493892 491.689331,11.729790 499.891724,14.073585 
	C510.823700,17.197371 521.521484,21.172297 532.232544,25.024576 
	C537.906738,27.065332 543.498169,29.405142 548.945618,31.991842 
	C557.646423,36.123402 566.378845,40.248440 574.765259,44.967442 
	C586.254150,51.432278 597.699768,58.049900 608.646118,65.375832 
	C615.610840,70.037071 621.607117,76.136818 628.092407,81.525635 
	C633.581848,86.086937 639.192871,90.502266 644.661255,95.088203 
	C646.755127,96.844193 648.675903,98.825302 650.549500,100.822121 
	C659.875977,110.761948 669.333130,120.587914 678.378723,130.778366 
	C682.260986,135.151917 685.249451,140.317444 688.658264,145.112991 
	C693.669067,152.162216 699.024231,158.992218 703.647034,166.286789 
	C716.225830,186.135162 726.918152,206.963120 734.971680,229.468872 
	C731.002014,229.882004 727.009094,229.923843 722.501343,229.548218 
	C702.865112,181.534210 674.741333,139.980408 636.833984,105.478477 
	C556.656799,32.504074 462.239075,2.399036 354.915741,16.527500 
	C273.877594,27.195681 205.530014,64.212402 149.776321,124.015587 
	C120.860306,155.031830 98.551056,190.362061 82.948570,229.855759 
	C78.942230,229.889038 74.935898,229.922318 70.471764,229.896912 
	C73.280754,222.036041 75.999367,213.945328 79.923653,206.489166 
	C89.304375,188.665787 99.037811,171.017029 109.109993,153.575623 
	C111.951988,148.654297 116.531471,144.753662 120.168655,140.266998 
	C122.009331,137.996414 123.321487,135.286774 125.225067,133.079620 
	C132.462738,124.687729 139.455276,116.031960 147.266647,108.200127 
	C157.905762,97.533127 168.638443,86.810379 180.401810,77.458458 
	C190.782867,69.205467 202.660843,62.843178 213.821167,55.559177 
	C219.017654,52.167583 223.849030,48.150166 229.262756,45.174992 
	C235.710220,41.631733 242.639893,38.975231 249.290390,35.787952 
	C252.247711,34.370651 254.879120,32.178425 257.922760,31.052422 
	C271.847015,25.901142 285.763550,20.689299 299.885406,16.126106 
	C309.045349,13.166267 318.468658,10.838835 327.927490,9.031622 
	C340.609222,6.608644 353.441437,4.975391 366.200287,2.947952 
	C366.916779,2.834101 367.553741,2.219924 368.113861,1.419309 
	C373.022095,1.000000 378.044189,1.000000 383.840851,1.284068 
	C396.508453,1.681718 408.401398,1.808010 420.294708,1.869604 
	C420.861633,1.872540 421.431488,1.302962 422.000000,1.000000 
	C426.356903,1.000000 430.713806,1.000000 435.535339,1.000000 
z"/>
<path fill="#E22626" opacity="1.000000" stroke="none" 
	d="
M423.467590,731.000000 
	C421.767700,716.927979 420.535400,702.855896 419.226929,687.914185 
	C430.107635,686.802368 441.137848,685.675293 452.295380,684.535217 
	C452.108612,687.655273 451.966553,690.028442 451.803833,692.747253 
	C444.410309,693.621277 437.104736,694.484863 428.920990,695.452271 
	C429.338074,698.093018 429.771515,700.837341 430.296875,704.163696 
	C437.004395,703.487976 443.483276,702.835266 450.671997,702.111084 
	C451.213470,704.725342 451.783752,707.478821 452.422607,710.563354 
	C445.093323,711.171997 438.392120,711.728455 430.851898,712.354553 
	C431.243347,715.502930 431.628937,718.604309 432.029144,721.823120 
	C440.183167,721.095825 447.792877,720.417114 455.726746,719.709473 
	C455.726746,722.697205 455.726746,724.961914 455.726746,727.754211 
	C451.968689,728.161682 448.094482,728.519226 444.240692,729.030823 
	C442.704559,729.234619 441.213654,729.779053 439.851074,730.584229 
	C434.645081,731.000000 429.290131,731.000000 423.467590,731.000000 
z"/>
<path fill="#E22626" opacity="1.000000" stroke="none" 
	d="
M366.400024,731.000000 
	C364.582397,729.991394 363.164795,728.982788 360.979492,727.428040 
	C362.040741,714.542603 363.184509,700.654907 364.410553,685.768616 
	C375.017761,686.581665 385.732483,687.403015 397.211304,688.282898 
	C396.717621,691.283020 396.263275,694.044006 395.820709,696.733276 
	C388.182037,696.112671 381.025238,695.531189 373.458649,694.916382 
	C372.897064,698.187561 372.364319,701.290527 371.811493,704.510620 
	C378.740448,705.083740 385.097260,705.609558 391.767181,706.161255 
	C391.850342,707.987915 391.922882,709.598877 391.997162,711.209717 
	C392.112610,713.712219 391.193024,714.553772 388.490265,714.243958 
	C382.942352,713.608032 377.342560,713.424561 371.565094,713.041565 
	C370.910950,718.828064 370.270111,724.497070 369.814636,730.583008 
	C368.933319,731.000000 367.866669,731.000000 366.400024,731.000000 
z"/>
<path fill="#E22626" opacity="1.000000" stroke="none" 
	d="
M402.454102,731.000000 
	C402.000000,716.897827 402.000000,702.795715 402.000000,688.348145 
	C405.023621,688.348145 407.731995,688.348145 410.580322,688.348145 
	C411.055695,702.319580 411.527832,716.197266 412.000000,730.537476 
	C408.969391,731.000000 405.938812,731.000000 402.454102,731.000000 
z"/>
<path fill="#9AA1A6" opacity="1.000000" stroke="none" 
	d="
M421.531342,1.000000 
	C421.431488,1.302962 420.861633,1.872540 420.294708,1.869604 
	C408.401398,1.808010 396.508453,1.681718 384.307709,1.284068 
	C396.354218,1.000000 408.708466,1.000000 421.531342,1.000000 
z"/>
<path fill="#FFFEFE" opacity="1.000000" stroke="none" 
	d="
M671.452087,229.865295 
	C670.288208,229.909805 669.124390,229.993317 667.960510,229.993332 
	C490.171326,229.995590 312.382141,229.991837 134.210083,229.572220 
	C135.416519,226.045303 136.955658,222.907654 138.602585,219.827637 
	C175.543640,150.742172 230.829086,102.670738 304.511261,76.189209 
	C344.854736,61.689686 386.614563,56.928970 429.364380,60.769516 
	C461.651001,63.670074 492.635040,71.530952 522.257202,84.640472 
	C569.198730,105.414825 608.229614,136.326797 639.440735,177.032425 
	C652.026855,193.447296 663.007629,210.905914 671.452087,229.865295 
M512.116028,181.594315 
	C510.618042,184.876175 509.120056,188.158020 507.431458,191.857407 
	C512.887390,192.209808 518.227051,191.431793 519.424561,186.736282 
	C522.046875,176.454437 529.008667,176.162781 537.185425,176.964035 
	C539.658936,177.206421 542.235535,177.349457 544.662354,176.936035 
	C551.825134,175.715866 555.972412,178.298355 558.215942,185.412827 
	C559.885803,190.708115 563.868896,192.111328 570.015808,190.928574 
	C569.140442,189.494873 568.160645,188.227020 567.529358,186.804520 
	C560.528564,171.030487 553.598389,155.225113 546.607300,139.446747 
	C545.067627,135.971786 543.046387,132.922638 538.610474,133.064590 
	C534.376404,133.200089 532.765259,136.366516 531.282043,139.620941 
	C525.008423,153.386398 518.739929,167.154175 512.116028,181.594315 
M339.093628,171.572205 
	C339.093628,178.302979 339.093628,185.033752 339.093628,191.853073 
	C345.269958,190.943558 347.758057,188.410065 347.934357,183.009186 
	C348.102661,177.855301 347.935547,172.691391 347.990021,167.532654 
	C348.051819,161.680420 351.144135,158.209763 356.119446,158.288376 
	C360.822632,158.362717 363.886261,161.774841 363.997162,167.324646 
	C364.103546,172.648239 363.922668,177.978043 364.052216,183.300613 
	C364.183960,188.714874 366.774689,191.201233 372.869263,191.622787 
	C372.869263,183.485153 372.839050,175.373718 372.879669,167.262634 
	C372.907593,161.692780 375.859100,158.325058 380.631653,158.271118 
	C385.415649,158.217041 388.584045,161.620102 388.679932,167.070389 
	C388.776550,172.560364 388.581451,178.060989 388.846161,183.540924 
	C389.099854,188.792145 391.403320,190.915771 397.103485,191.672485 
	C397.103485,181.871841 397.521576,172.078934 396.953247,162.343628 
	C396.587921,156.085938 390.317017,150.812332 383.746887,149.812561 
	C377.982117,148.935318 372.874786,150.426743 368.539795,154.452332 
	C367.187439,153.537674 365.996948,152.634583 364.717560,151.882812 
	C354.935638,146.134918 342.212250,151.300720 339.707336,162.175400 
	C339.082672,164.887192 339.276123,167.787415 339.093628,171.572205 
M278.309052,147.150116 
	C281.949188,150.586411 285.755859,153.236725 290.988892,150.086807 
	C283.040039,134.010559 262.512878,127.702538 246.277771,136.109863 
	C235.060974,141.918457 228.221405,153.448288 229.488205,164.412918 
	C232.049728,186.584076 257.087280,199.235016 277.297913,188.515701 
	C282.137634,185.948837 286.643280,182.918152 289.147644,177.583786 
	C284.665497,174.517319 280.815918,175.557892 277.057587,178.425812 
	C270.689117,183.285492 263.508057,184.527008 255.792145,182.892624 
	C246.902756,181.009659 239.267670,173.491928 238.228592,165.161407 
	C237.096771,156.087357 241.214066,149.405319 248.743317,144.670822 
	C257.447266,139.197632 268.314728,139.990997 278.309052,147.150116 
M432.174286,160.031174 
	C438.464325,164.693924 440.684937,170.399460 437.589539,175.766037 
	C436.180939,178.208221 433.752533,180.545761 431.224457,181.762482 
	C425.135681,184.692886 419.068054,182.982681 413.317535,179.849319 
	C412.316406,186.048462 413.642578,189.691559 417.853088,190.966919 
	C430.850037,194.903641 444.956299,187.600052 447.244537,174.646713 
	C449.314301,162.930222 441.330475,151.803741 429.504822,149.836380 
	C416.111176,147.608185 403.397705,154.934601 402.386536,167.042709 
	C401.287567,180.202469 402.137238,193.524948 402.137238,206.798676 
	C407.813751,206.071594 410.346832,203.539520 410.437744,198.125610 
	C410.571869,190.138977 410.425171,182.148071 410.484161,174.159622 
	C410.581238,161.011414 418.885468,155.309525 432.174286,160.031174 
M292.301483,179.964142 
	C293.012268,181.087723 293.639008,182.276093 294.447266,183.324524 
	C300.181519,190.762756 311.069641,193.886887 321.142334,191.029160 
	C329.898621,188.544907 336.233826,181.415817 337.043762,173.135086 
	C337.910858,164.270081 333.561859,156.411209 325.472717,152.225677 
	C316.408722,147.535721 304.244629,148.984589 296.980804,155.619400 
	C290.219788,161.794937 288.476562,170.053635 292.301483,179.964142 
M441.581085,132.891556 
	C438.621979,132.891556 435.662872,132.891556 432.648987,132.891556 
	C433.381317,139.185699 435.812836,141.535538 441.720062,141.688599 
	C447.306732,141.833344 452.900116,141.719696 458.903564,141.719696 
	C458.903564,144.233109 458.903351,146.031586 458.903625,147.830063 
	C458.905273,159.485245 458.826965,171.141235 458.942474,182.795288 
	C459.000397,188.639069 461.730164,191.366684 467.858643,191.606003 
	C467.858643,175.067657 467.858643,158.542114 467.858643,141.713837 
	C474.178436,141.713837 479.828064,141.870224 485.464966,141.669647 
	C491.045990,141.471039 493.552795,138.834290 493.872559,132.891556 
	C476.750916,132.891556 459.653503,132.891556 441.581085,132.891556 
M496.849884,159.499954 
	C496.858063,167.305679 496.749207,175.113861 496.912872,182.916321 
	C497.035583,188.766937 499.624359,191.285202 505.860229,191.678207 
	C505.860229,186.556885 505.860687,181.461670 505.860107,176.366440 
	C505.858856,165.238998 505.961334,154.110199 505.815430,142.984650 
	C505.731049,136.548294 502.823975,133.618378 496.849884,133.635406 
	C496.849884,141.920959 496.849884,150.210449 496.849884,159.499954 
M577.243958,182.506546 
	C574.911560,182.200104 572.537720,181.548813 570.274719,181.820465 
	C569.680786,181.891785 568.580139,185.575333 569.204285,186.281784 
	C570.396606,187.631409 573.292114,189.155167 574.334229,188.568893 
	C575.934509,187.668518 576.566589,185.047256 577.243958,182.506546 
z"/>
<path fill="#FEFEFE" opacity="1.000000" stroke="none" 
	d="
M118.954842,447.380829 
	C120.446526,447.297699 121.938202,447.141876 123.429893,447.141785 
	C309.864258,447.130707 496.298615,447.131012 682.732971,447.133362 
	C683.565552,447.133362 684.398132,447.170471 685.614929,447.635986 
	C670.241211,496.944519 643.358459,538.709839 606.099731,574.099121 
	C604.198364,572.934143 602.681396,571.931335 601.098572,571.046204 
	C585.273987,562.196350 569.954346,552.229126 553.500061,544.764160 
	C518.045349,528.679138 481.718567,515.197510 441.626373,517.463989 
	C432.529358,517.978271 432.504517,517.539368 432.504486,508.154602 
	C432.504425,499.188873 432.504456,490.223145 432.504456,481.055908 
	C430.634094,480.933167 429.329529,480.773712 428.024933,480.772949 
	C404.362396,480.758881 380.699677,480.712463 357.037354,480.785431 
	C344.171936,480.825104 335.446442,489.370087 334.973145,502.322479 
	C334.785706,507.452057 334.942383,512.594238 334.942383,517.559814 
	C333.992889,517.922058 333.540192,518.158875 333.058563,518.268616 
	C328.353546,519.340759 323.632996,520.346375 318.936890,521.455750 
	C277.863983,531.158508 239.553894,547.352356 204.435318,570.799377 
	C199.968002,573.781982 197.484573,573.387390 194.202591,569.504700 
	C189.802780,564.299744 184.695129,559.699585 180.172791,554.590637 
	C152.315201,523.120056 131.745255,487.465942 118.954842,447.380829 
z"/>
<path fill="#6E777F" opacity="1.000000" stroke="none" 
	d="
M118.503693,447.290161 
	C131.745255,487.465942 152.315201,523.120056 180.172791,554.590637 
	C184.695129,559.699585 189.802780,564.299744 194.202591,569.504700 
	C197.484573,573.387390 199.968002,573.781982 204.435318,570.799377 
	C239.553894,547.352356 277.863983,531.158508 318.936890,521.455750 
	C323.632996,520.346375 328.353546,519.340759 333.058563,518.268616 
	C333.540192,518.158875 333.992889,517.922058 334.942383,517.559814 
	C334.942383,512.594238 334.785706,507.452057 334.973145,502.322479 
	C335.446442,489.370087 344.171936,480.825104 357.037354,480.785431 
	C380.699677,480.712463 404.362396,480.758881 428.024933,480.772949 
	C429.329529,480.773712 430.634094,480.933167 432.504456,481.055908 
	C432.504456,490.223145 432.504425,499.188873 432.504486,508.154602 
	C432.504517,517.539368 432.529358,517.978271 441.626373,517.463989 
	C481.718567,515.197510 518.045349,528.679138 553.500061,544.764160 
	C569.954346,552.229126 585.273987,562.196350 601.098572,571.046204 
	C602.681396,571.931335 604.198364,572.934143 606.099731,574.099121 
	C643.358459,538.709839 670.241211,496.944519 686.079346,447.727814 
	C689.980713,447.322479 693.801880,447.271027 697.989380,447.673920 
	C682.524048,499.526978 654.621521,543.540222 616.123535,581.025330 
	C625.472412,588.607544 634.212036,595.695679 643.572815,603.287598 
	C644.538147,601.267456 645.315186,599.641357 646.056274,598.008423 
	C646.020264,598.001648 646.017700,598.074768 646.243164,598.436523 
	C647.983337,597.541931 649.642151,596.423218 650.991516,595.009155 
	C691.268494,552.801331 719.462646,503.718933 734.874878,447.378510 
	C739.050903,447.481384 743.226868,447.584229 747.771851,447.902496 
	C743.034241,462.597748 738.452698,477.291565 732.664490,491.493561 
	C727.506287,504.149902 721.257690,516.387268 715.026672,528.572449 
	C710.592590,537.243652 705.741760,545.751282 700.428772,553.909851 
	C695.151428,562.013672 689.352478,569.824219 683.254456,577.334900 
	C676.367065,585.817749 669.010559,593.931946 661.631287,601.999084 
	C656.372498,607.748108 650.816284,613.235046 645.189453,618.626648 
	C644.348450,619.432495 641.755554,619.777954 641.051514,619.142212 
	C635.474243,614.105774 630.303955,608.617676 624.713379,603.597046 
	C620.634216,599.933777 616.106323,596.770264 611.780151,593.381897 
	C609.591980,591.668030 603.762329,592.736877 598.677917,596.914246 
	C591.013184,603.211670 583.329285,609.605652 575.008179,614.954712 
	C563.866577,622.116882 552.485046,629.123901 540.518921,634.729614 
	C525.852783,641.600098 510.543335,647.131775 495.373047,652.875183 
	C489.293213,655.177002 482.875641,656.627869 476.554749,658.242615 
	C465.903320,660.963684 455.040771,662.479858 444.189392,664.226624 
	C425.730347,667.197876 407.231720,667.402954 388.720795,666.849915 
	C377.591888,666.517395 366.535400,664.233948 355.407867,663.273987 
	C337.196991,661.702942 319.858551,656.363098 302.729095,650.661926 
	C290.314423,646.530029 278.349518,640.848450 266.562622,635.083862 
	C254.621994,629.243896 242.980392,622.733398 231.536972,615.960571 
	C225.732651,612.525269 220.604599,607.927063 215.261490,603.738953 
	C210.842911,600.275513 206.887207,596.057129 202.068054,593.341614 
	C199.801224,592.064270 195.075470,592.361450 193.029556,593.955017 
	C183.184479,601.623535 173.827393,609.924500 164.398788,618.118042 
	C161.296387,620.814026 158.840637,618.979980 156.652023,617.175537 
	C153.837784,614.855347 151.260330,612.192871 148.869019,609.428528 
	C145.776611,605.853821 143.066788,601.949219 139.998810,598.351624 
	C138.357285,596.426697 136.289276,594.869202 134.456894,593.101196 
	C133.848297,592.513855 133.386322,591.776855 132.836456,591.125916 
	C131.315231,589.325012 129.769592,587.544739 128.257812,585.736084 
	C124.993301,581.830505 121.568481,578.043091 118.529655,573.968445 
	C114.000778,567.895996 109.452896,561.801636 105.449455,555.382080 
	C99.723434,546.200317 94.266144,536.833801 89.096817,527.327148 
	C84.411156,518.709961 79.632011,510.050720 76.024597,500.961334 
	C70.202560,486.291870 65.285912,471.262024 60.045296,456.363861 
	C59.178265,453.899017 58.608959,451.329468 57.808205,448.419189 
	C61.707397,447.745605 65.700432,447.461090 70.227188,447.619202 
	C71.016159,449.197998 71.220604,450.348358 71.533997,451.468201 
	C84.944000,499.384674 108.125084,542.085510 140.375015,579.882812 
	C147.151337,587.824768 154.451584,595.319702 161.585785,603.102844 
	C171.041367,595.469055 179.922211,588.299316 190.037796,580.132690 
	C187.894287,578.592407 185.948929,577.526794 184.412552,576.038940 
	C169.753784,561.843140 156.933258,546.104797 145.583038,529.169189 
	C128.601501,503.831146 115.346001,476.710602 106.742928,447.387054 
	C110.512802,447.324524 114.282677,447.261993 118.503693,447.290161 
M254.685974,556.101196 
	C238.778687,563.688232 223.275269,571.974976 208.696976,582.149292 
	C318.660797,679.997131 490.027161,677.609680 596.031433,582.451233 
	C576.530029,563.988647 493.360870,529.854309 469.560028,530.750427 
	C469.560028,532.531189 469.560028,534.333252 469.560028,536.135315 
	C469.560028,554.293945 469.564117,572.452515 469.558807,590.611145 
	C469.553772,607.795044 462.076172,615.401306 445.011566,615.435913 
	C422.521637,615.481445 400.031525,615.453735 377.541504,615.433838 
	C375.779602,615.432312 374.017822,615.245300 371.636536,615.109070 
	C371.636536,602.566223 371.636536,590.506470 371.636536,577.993530 
	C359.072784,577.993530 347.156860,577.993530 334.853729,577.993530 
	C334.853729,561.908875 334.853729,546.302185 334.853729,530.146545 
	C306.949799,535.469238 280.688568,544.136536 254.685974,556.101196 
M385.506897,517.610229 
	C397.231201,517.610229 408.955505,517.610229 420.666382,517.610229 
	C420.666382,508.713348 420.666382,500.784607 420.666382,492.714569 
	C419.790161,492.534149 419.162994,492.292816 418.535583,492.292084 
	C398.223236,492.268463 377.910004,492.158142 357.598999,492.323608 
	C350.467804,492.381683 346.690674,496.548676 346.666840,503.775940 
	C346.602570,523.255798 346.636597,542.736023 346.657654,562.216064 
	C346.659027,563.499207 346.879028,564.782043 347.011261,566.216064 
	C355.373230,566.216064 363.431763,566.216064 372.059082,566.216064 
	C372.059082,549.928528 372.059082,534.028137 372.059082,517.609924 
	C376.587921,517.609924 380.548676,517.609924 385.506897,517.610229 
M457.787476,531.994202 
	C457.209747,531.128906 456.648193,529.523438 456.051880,529.510498 
	C448.312347,529.341309 440.567841,529.398315 432.230896,529.398315 
	C432.230896,546.054321 432.230896,561.940857 432.230896,578.433960 
	C415.741302,578.433960 399.865875,578.433960 383.962769,578.433960 
	C383.962769,586.983521 383.962769,594.904480 383.962769,603.429321 
	C386.240448,603.429321 388.190491,603.429382 390.140533,603.429382 
	C408.802124,603.429504 427.463684,603.433350 446.125275,603.428162 
	C455.113983,603.425720 457.787415,600.807495 457.796295,591.894775 
	C457.815918,572.233459 457.801270,552.572205 457.787476,531.994202 
M420.959229,544.505005 
	C420.959229,539.592590 420.959229,534.680176 420.959229,529.657837 
	C408.174622,529.657837 396.141418,529.657837 383.624176,529.657837 
	C383.624176,537.308716 383.530090,544.598816 383.657715,551.885071 
	C383.740784,556.628357 382.445923,562.901184 384.920929,565.642883 
	C387.080292,568.034912 393.650116,566.540833 398.273193,566.591797 
	C405.702423,566.673645 413.133270,566.613708 420.959198,566.613708 
	C420.959198,559.085144 420.959198,552.293945 420.959229,544.505005 
z"/>
<path fill="#FEFEFE" opacity="1.000000" stroke="none" 
	d="
M83.420158,229.910995 
	C98.551056,190.362061 120.860306,155.031830 149.776321,124.015587 
	C205.530014,64.212402 273.877594,27.195681 354.915741,16.527500 
	C462.239075,2.399036 556.656799,32.504074 636.833984,105.478477 
	C674.741333,139.980408 702.865112,181.534210 722.048096,229.489929 
	C709.899658,229.891068 697.689697,229.933029 684.919800,229.552536 
	C680.009216,220.701614 675.984924,212.085220 671.255554,203.874969 
	C639.063232,147.989655 593.875122,105.951180 535.797729,77.942871 
	C494.679474,58.113247 451.174774,48.210850 405.510925,47.768135 
	C366.774506,47.392590 329.277130,54.008991 293.081451,67.763710 
	C247.289948,85.164917 207.791946,111.983101 174.679581,148.051224 
	C152.337372,172.387787 133.957657,199.423431 120.793533,229.850128 
	C108.492935,229.888824 96.192345,229.927521 83.420158,229.910995 
z"/>
<path fill="#6E777F" opacity="1.000000" stroke="none" 
	d="
M121.265884,229.903503 
	C133.957657,199.423431 152.337372,172.387787 174.679581,148.051224 
	C207.791946,111.983101 247.289948,85.164917 293.081451,67.763710 
	C329.277130,54.008991 366.774506,47.392590 405.510925,47.768135 
	C451.174774,48.210850 494.679474,58.113247 535.797729,77.942871 
	C593.875122,105.951180 639.063232,147.989655 671.255554,203.874969 
	C675.984924,212.085220 680.009216,220.701614 684.495361,229.484924 
	C680.521423,229.885086 676.411987,229.930405 671.877319,229.920502 
	C663.007629,210.905914 652.026855,193.447296 639.440735,177.032425 
	C608.229614,136.326797 569.198730,105.414825 522.257202,84.640472 
	C492.635040,71.530952 461.651001,63.670074 429.364380,60.769516 
	C386.614563,56.928970 344.854736,61.689686 304.511261,76.189209 
	C230.829086,102.670738 175.543640,150.742172 138.602585,219.827637 
	C136.955658,222.907654 135.416519,226.045303 133.742371,229.508301 
	C129.684464,229.892624 125.711342,229.924759 121.265884,229.903503 
z"/>
<path fill="#FEFDFD" opacity="1.000000" stroke="none" 
	d="
M106.296204,447.303802 
	C115.346001,476.710602 128.601501,503.831146 145.583038,529.169189 
	C156.933258,546.104797 169.753784,561.843140 184.412552,576.038940 
	C185.948929,577.526794 187.894287,578.592407 190.037796,580.132690 
	C179.922211,588.299316 171.041367,595.469055 161.585785,603.102844 
	C154.451584,595.319702 147.151337,587.824768 140.375015,579.882812 
	C108.125084,542.085510 84.944000,499.384674 71.533997,451.468201 
	C71.220604,450.348358 71.016159,449.197998 70.654564,447.686646 
	C82.315315,447.281097 94.082405,447.250824 106.296204,447.303802 
z"/>
<path fill="#FEFDFD" opacity="1.000000" stroke="none" 
	d="
M734.419189,447.290161 
	C719.462646,503.718933 691.268494,552.801331 650.991516,595.009155 
	C649.642151,596.423218 647.983337,597.541931 646.307739,598.054077 
	C646.473816,596.397278 647.345337,595.145874 647.027283,594.634949 
	C646.018616,593.014526 644.695984,590.679565 643.249268,590.489502 
	C641.704346,590.286682 639.880127,592.209412 638.177795,593.204224 
	C639.263123,594.516541 640.128845,596.179626 641.498779,597.037476 
	C642.745239,597.818054 644.539429,597.723877 646.092224,598.015259 
	C645.315186,599.641357 644.538147,601.267456 643.572815,603.287598 
	C634.212036,595.695679 625.472412,588.607544 616.123535,581.025330 
	C654.621521,543.540222 682.524048,499.526978 698.480835,447.763855 
	C710.391724,447.333557 722.177551,447.267700 734.419189,447.290161 
z"/>
<path fill="#FFFBFB" opacity="1.000000" stroke="none" 
	d="
M122.103035,316.988251 
	C122.103035,338.273010 122.103035,359.557800 122.103035,381.076172 
	C116.167877,381.076172 110.905418,381.076172 105.339012,381.076172 
	C105.339012,349.177460 105.339012,317.423706 105.339012,284.914154 
	C110.227615,284.914154 115.165718,284.651855 120.043022,285.080811 
	C121.428825,285.202698 122.826050,287.190796 123.899239,288.570953 
	C139.137482,308.167267 154.319824,327.807129 169.521103,347.432220 
	C170.099884,348.179443 170.733109,348.884460 172.180664,350.610260 
	C172.180664,328.115082 172.180664,306.780029 172.180664,285.153381 
	C178.050201,285.153381 183.286469,285.153381 188.827911,285.153381 
	C188.827911,317.022491 188.827911,348.776642 188.827911,381.280609 
	C184.646408,381.280609 180.381317,381.516968 176.171021,381.140411 
	C174.863251,381.023407 173.470901,379.426758 172.511719,378.199310 
	C156.509460,357.721588 140.569931,337.194885 124.231720,316.201996 
	C123.392334,315.237213 122.937630,314.749512 122.103035,313.854340 
	C122.103035,315.363403 122.103035,316.175812 122.103035,316.988251 
z"/>
<path fill="#FEFBFB" opacity="1.000000" stroke="none" 
	d="
M377.625793,365.627228 
	C376.832214,367.882263 376.188629,369.770538 375.528046,371.652863 
	C371.557770,382.965912 371.551178,383.018158 359.542389,381.810547 
	C358.385406,381.694183 356.676483,380.617981 356.351746,379.620270 
	C348.743378,356.243896 341.290558,332.816895 333.667145,308.954773 
	C339.578430,308.954773 344.993256,308.954773 350.950684,308.954773 
	C355.532654,324.505951 360.208435,340.375427 365.317230,357.714539 
	C370.954163,340.262726 376.102203,324.324432 381.195374,308.556152 
	C381.613861,308.395752 381.765839,308.297119 381.925629,308.282074 
	C395.245911,307.029358 395.247040,307.029419 399.361176,319.591492 
	C403.339569,331.739044 407.315369,343.887421 411.781250,357.528931 
	C414.472595,348.783813 416.781311,341.426758 418.996918,334.041748 
	C421.196808,326.708923 423.367493,319.365906 425.413757,311.989288 
	C426.087677,309.559753 427.186310,308.420227 429.897308,308.566315 
	C434.168518,308.796417 438.461212,308.627472 443.465912,308.627472 
	C435.417175,333.408752 427.581177,357.535034 419.795929,381.505127 
	C419.366730,381.641632 419.210358,381.726227 419.048767,381.737823 
	C405.006348,382.746887 404.943237,382.767639 400.540222,369.642761 
	C396.579437,357.836121 392.777679,345.976105 388.412842,332.632690 
	C384.546875,344.481262 381.157379,354.869507 377.625793,365.627228 
z"/>
<path fill="#FFFCFC" opacity="1.000000" stroke="none" 
	d="
M653.504883,381.311401 
	C641.883789,383.517822 634.346863,379.339996 629.111328,369.131775 
	C625.741577,362.561493 620.754456,356.820679 616.300476,350.433136 
	C610.332764,355.529358 604.564819,360.066650 606.028198,369.031555 
	C606.656494,372.880463 606.133301,376.917328 606.133301,381.081604 
	C600.335266,381.081604 595.063416,381.081604 589.451660,381.081604 
	C589.451660,347.780640 589.451660,314.553284 589.451660,280.906982 
	C594.720825,280.906982 600.100464,280.906982 605.949341,280.906982 
	C605.949341,300.103851 605.949341,319.318268 605.949341,339.674530 
	C607.667664,338.228058 608.648254,337.554749 609.444946,336.708466 
	C617.201843,328.468262 625.006714,320.270599 632.613525,311.893463 
	C634.820740,309.462799 637.122742,308.408875 640.401367,308.573181 
	C645.310242,308.819214 650.240601,308.637115 655.161865,308.637115 
	C655.539856,309.202850 655.917847,309.768585 656.295837,310.334351 
	C646.416809,319.134186 636.537842,327.934021 626.665161,336.728180 
	C637.503174,352.397675 647.203308,366.421997 657.302063,381.022675 
	C655.759399,381.155304 654.856140,381.232971 653.504883,381.311401 
z"/>
<path fill="#FEFBFB" opacity="1.000000" stroke="none" 
	d="
M516.645508,321.384888 
	C530.200562,341.042419 525.852539,365.055206 506.829132,377.100861 
	C488.363373,388.793427 462.968048,382.733917 451.852112,363.982880 
	C444.281525,351.212341 445.516235,334.036011 454.891785,321.697510 
	C464.174133,309.481659 480.763336,304.176117 496.624756,308.357666 
	C504.603607,310.461121 511.246094,314.647034 516.645508,321.384888 
M502.142914,329.420471 
	C496.022980,322.587646 488.443085,320.226105 479.650970,322.647522 
	C471.163635,324.985016 466.296356,330.933350 464.450073,339.420349 
	C462.093353,350.253571 466.698242,360.863525 475.856842,365.851288 
	C483.855621,370.207428 494.527924,368.587036 501.189148,362.005096 
	C509.171021,354.118286 509.787140,340.496796 502.142914,329.420471 
z"/>
<path fill="#FFFCFC" opacity="1.000000" stroke="none" 
	d="
M250.457062,308.264801 
	C267.882843,314.270782 278.093323,332.349548 274.538879,350.895813 
	C257.218109,350.895813 239.807602,350.895813 221.890015,350.895813 
	C222.962814,358.443268 226.381882,363.925354 232.789719,366.869720 
	C243.674286,371.871094 253.170578,368.551361 262.061859,360.412872 
	C265.257690,363.246826 268.422394,366.053192 271.543762,368.821136 
	C262.559326,382.622498 240.899170,387.075745 224.213516,378.856598 
	C208.051590,370.895416 200.583481,350.538574 206.872269,331.587250 
	C213.068573,312.914642 229.383636,304.060272 250.457062,308.264801 
M249.414673,339.585358 
	C252.193909,339.585358 254.973145,339.585358 257.728210,339.585358 
	C258.092896,329.368713 250.443588,321.125244 240.835617,320.859650 
	C230.646301,320.578003 222.226990,328.813232 222.197098,339.585297 
	C230.938705,339.585297 239.686935,339.585297 249.414673,339.585358 
z"/>
<path fill="#FEFAFA" opacity="1.000000" stroke="none" 
	d="
M325.906189,366.710083 
	C325.926331,368.809357 325.928955,370.475403 325.929199,372.141449 
	C325.930237,379.597260 325.299408,380.445251 317.878204,381.782440 
	C315.106415,382.281860 312.242279,382.682831 309.445465,382.559021 
	C296.210144,381.973114 289.904602,375.258148 289.855621,361.858398 
	C289.808838,349.071320 289.845551,336.283966 289.845551,323.141693 
	C286.609894,323.141693 283.832886,323.141693 280.673035,323.141693 
	C280.673035,318.260864 280.673035,313.726654 280.673035,308.715759 
	C283.484467,308.715759 286.254395,308.715759 289.570465,308.715759 
	C289.570465,301.874542 289.570465,295.475006 289.570465,288.674133 
	C295.326843,288.674133 300.557037,288.674133 306.525665,288.674133 
	C306.525665,295.021454 306.525665,301.569214 306.525665,308.552673 
	C313.342407,308.552673 319.443665,308.552673 325.804810,308.552673 
	C325.804810,313.438202 325.804810,317.868744 325.804810,322.853851 
	C319.702728,322.853851 313.468170,322.853851 306.880737,322.853851 
	C306.880737,335.825562 306.662048,348.257477 306.991302,360.674835 
	C307.118103,365.458069 310.627838,367.608582 316.306458,367.312378 
	C319.509399,367.145264 322.694427,366.633392 325.906189,366.710083 
z"/>
<path fill="#FEF9F9" opacity="1.000000" stroke="none" 
	d="
M672.991821,325.061737 
	C677.108398,325.061737 680.731384,325.061737 684.866455,325.061737 
	C684.866455,316.219299 684.866455,307.829773 684.866455,299.216370 
	C690.321045,299.216370 695.259827,299.216370 700.664917,299.216370 
	C700.664917,307.552490 700.664917,315.955933 700.664917,324.985657 
	C709.637634,324.985657 718.168457,324.985657 726.954224,324.985657 
	C726.954224,330.370880 726.954224,335.124817 726.954224,340.326233 
	C718.411743,340.326233 709.985657,340.326233 701.109802,340.326233 
	C701.109802,349.175781 701.109802,357.595154 701.109802,366.398315 
	C695.631409,366.398315 690.593689,366.398315 684.970215,366.398315 
	C684.970215,357.932220 684.970215,349.545227 684.970215,340.661560 
	C676.004089,340.661560 667.600342,340.661560 658.894897,340.661560 
	C658.894897,335.252869 658.894897,330.352692 658.894897,325.061737 
	C663.574036,325.061737 668.036194,325.061737 672.991821,325.061737 
z"/>
<path fill="#FFFBFB" opacity="1.000000" stroke="none" 
	d="
M551.931152,308.654419 
	C553.007141,309.808228 554.010254,310.917603 554.093689,312.092285 
	C554.325256,315.351074 554.174011,318.637024 554.174011,323.610474 
	C560.285522,312.708069 567.953552,306.701385 579.727112,307.176208 
	C579.727112,312.976074 579.727112,318.723663 579.727112,324.443024 
	C579.342834,324.624512 579.074768,324.846863 578.789185,324.872314 
	C562.480835,326.326843 554.477295,335.324036 554.200317,352.791412 
	C554.053040,362.075867 554.174255,371.364594 554.174255,380.980591 
	C548.447449,380.980591 543.074890,380.980591 537.429382,380.980591 
	C537.429382,356.957703 537.429382,333.095032 537.429382,308.639771 
	C542.228577,308.639771 546.833496,308.639771 551.931152,308.654419 
z"/>
<path fill="#E01616" opacity="1.000000" stroke="none" 
	d="
M122.596848,316.851868 
	C122.103035,316.175812 122.103035,315.363403 122.103035,313.854340 
	C122.937630,314.749512 123.392334,315.237213 123.955536,316.060242 
	C123.739578,316.502197 123.415115,316.608826 122.596848,316.851868 
z"/>
<path fill="#E22626" opacity="1.000000" stroke="none" 
	d="
M280.998718,703.981873 
	C280.323364,701.390076 280.148071,698.855469 278.885101,697.106140 
	C277.076324,694.600708 274.473114,692.668884 271.379883,689.694824 
	C268.983765,695.702209 267.188995,700.201843 265.294403,704.951782 
	C262.620605,703.764771 259.852722,702.535950 256.961761,701.252502 
	C262.079773,687.756897 267.149048,674.389771 272.493500,660.296997 
	C279.660309,663.330994 286.453613,666.031311 293.091949,669.070251 
	C298.868744,671.714661 302.566101,677.586121 301.976349,682.416748 
	C301.085632,689.712524 296.727203,694.459534 289.484802,696.045471 
	C289.032684,696.144409 288.607605,696.366821 288.320709,696.474915 
	C289.494659,701.531921 290.691864,706.454407 291.730408,711.410156 
	C291.890228,712.172852 291.570129,713.400757 291.016205,713.844116 
	C290.479523,714.273743 289.240540,714.243408 288.510345,713.937317 
	C286.133057,712.940430 283.847351,711.724915 282.205017,710.924316 
	C281.741852,708.385376 281.377411,706.387634 280.998718,703.981873 
M274.132202,683.212952 
	C277.583557,684.544312 281.104401,685.722412 284.467590,687.248169 
	C288.177490,688.931213 290.379089,686.986450 291.270996,684.022705 
	C291.877167,682.008484 291.652588,678.114929 290.495483,677.494751 
	C286.496277,675.351196 282.684998,671.643372 277.417267,673.408447 
	C277.087463,673.518982 276.898346,674.196533 276.739075,674.644165 
	C275.819641,677.228455 274.928894,679.822876 274.132202,683.212952 
z"/>
<path fill="#E22626" opacity="1.000000" stroke="none" 
	d="
M492.709686,684.182739 
	C499.821075,689.527771 502.444305,700.461426 499.209015,708.463989 
	C495.461823,717.732788 488.900513,722.454285 478.909546,723.132019 
	C474.927307,723.402161 471.034424,724.989929 466.193939,726.205688 
	C463.132904,712.020386 460.097107,697.952026 456.834076,682.830688 
	C466.071564,681.690796 475.096588,680.170410 484.175537,679.708008 
	C486.852966,679.571655 489.682709,682.426270 492.709686,684.182739 
M473.767456,689.000000 
	C471.910736,689.219360 470.053986,689.438721 467.862915,689.697571 
	C469.671631,698.838928 471.342285,707.282532 473.063416,715.981262 
	C475.856354,714.960754 478.413818,713.015808 480.370270,713.499939 
	C486.357422,714.981262 488.523376,710.487366 489.653748,707.008301 
	C490.832306,703.381042 490.359222,698.694214 489.162537,694.930298 
	C486.888855,687.779053 480.417725,688.850647 473.767456,689.000000 
z"/>
<path fill="#E22626" opacity="1.000000" stroke="none" 
	d="
M600.795471,674.724609 
	C598.682251,676.305969 596.836609,677.631531 594.475403,679.327332 
	C588.565247,670.010559 582.750732,660.830017 576.911926,651.664978 
	C576.379883,650.829895 575.652466,650.121765 575.081909,649.308289 
	C570.066528,642.157043 570.235046,642.435425 578.606812,637.555725 
	C585.248291,633.684692 591.423950,629.014343 597.765686,624.726440 
	C602.663147,630.778503 604.202209,631.692566 596.706909,635.875183 
	C592.150818,638.417542 587.799622,641.327209 583.107544,644.225586 
	C584.771423,646.912598 586.258484,649.314026 587.761292,651.740906 
	C593.582153,648.094910 599.562317,644.349060 605.727051,640.487671 
	C607.269287,643.342041 608.542175,645.697815 609.932068,648.270142 
	C604.447876,651.684021 598.929565,655.119141 593.386658,658.569641 
	C595.652954,666.114136 596.762817,666.673950 604.916809,662.374451 
	C608.460388,660.505981 611.430176,657.549316 615.747986,654.257935 
	C617.185913,655.441223 619.671875,656.846069 621.099121,658.964417 
	C621.703613,659.861633 620.580322,662.891541 619.370483,663.839478 
	C616.909607,665.767700 613.812683,666.863892 611.057983,668.442749 
	C607.683533,670.376709 604.390930,672.453735 600.795471,674.724609 
z"/>
<path fill="#E22626" opacity="1.000000" stroke="none" 
	d="
M248.654999,668.292114 
	C250.365112,669.345581 251.687317,670.368103 253.176270,670.993652 
	C256.033600,672.193970 256.987976,674.299927 255.824112,676.961792 
	C254.275208,680.504272 251.888458,680.337952 248.784363,678.377930 
	C244.327301,675.563599 239.561066,673.238892 234.733627,670.599548 
	C233.079239,673.970215 231.873856,676.426086 230.803558,678.606689 
	C237.557373,682.391113 243.892609,685.940979 250.959030,689.900574 
	C250.532608,691.186157 249.952789,693.711182 248.805161,695.944397 
	C248.437378,696.660034 246.234787,697.230347 245.437302,696.805481 
	C236.608810,692.102173 227.891693,687.189758 218.601578,682.032471 
	C225.184784,669.316162 231.760254,656.614807 238.703918,643.202271 
	C244.621979,646.588745 249.989166,649.781311 255.477402,652.750061 
	C258.267029,654.258911 261.179474,655.698914 264.209595,656.562195 
	C267.447357,657.484619 267.674805,658.861267 266.100250,661.451050 
	C265.296295,662.773376 264.898926,664.342957 264.192017,666.116333 
	C257.071075,662.705994 249.986420,659.312988 242.967667,655.951599 
	C238.623016,660.810791 238.760849,662.247742 243.717804,665.327454 
	C245.241608,666.274170 246.799911,667.165283 248.654999,668.292114 
z"/>
<path fill="#E22626" opacity="1.000000" stroke="none" 
	d="
M203.415894,671.999268 
	C188.749207,668.639099 182.900192,655.305542 187.764236,641.602539 
	C189.741043,636.033508 192.497757,630.716492 198.213348,629.098206 
	C203.041748,627.731079 208.515900,627.959595 213.622192,628.410645 
	C222.487869,629.193787 226.833664,636.104065 230.786453,642.919983 
	C231.361237,643.911072 230.104355,647.066772 228.876221,647.750793 
	C226.876984,648.864319 224.202240,648.765015 221.714340,649.194580 
	C222.114700,643.427917 216.243439,637.520203 210.348190,636.967224 
	C202.439423,636.225220 195.743317,643.211609 195.443222,651.022400 
	C195.304977,654.620667 198.276459,659.740234 201.389740,661.682739 
	C204.767792,663.790283 209.951096,663.004395 214.339935,663.479492 
	C214.339935,665.806213 214.339935,668.341431 214.339935,671.999878 
	C210.933716,671.999878 207.395355,671.999878 203.415894,671.999268 
z"/>
<path fill="#E22626" opacity="1.000000" stroke="none" 
	d="
M548.604431,667.857544 
	C546.417908,677.280029 553.703003,683.213684 559.394897,685.577454 
	C561.092651,686.282349 564.012756,686.042542 565.453552,684.984192 
	C569.437256,682.057617 572.935730,678.470581 576.626099,675.144653 
	C576.367554,674.704834 576.109009,674.265076 575.850525,673.825317 
	C577.807495,674.565308 579.828186,675.178650 581.686279,676.114929 
	C582.325684,676.437073 582.923523,677.567688 582.917969,678.324463 
	C582.885315,682.823120 577.538391,688.875610 573.051453,691.155945 
	C565.786072,694.848145 559.021729,695.936401 551.151123,692.245361 
	C540.324463,687.167969 536.430420,671.322205 540.781067,663.364014 
	C547.238281,651.552490 556.906006,647.065613 571.145386,650.674133 
	C570.327820,653.301453 569.514832,655.914124 568.511719,659.137573 
	C559.672485,656.302002 552.705322,658.495728 548.604431,667.857544 
z"/>
<path fill="#E22626" opacity="1.000000" stroke="none" 
	d="
M321.995911,711.087646 
	C321.193115,714.487366 320.405121,717.475525 319.438507,721.141113 
	C316.552216,720.722778 313.559631,720.289062 310.498444,719.845398 
	C313.131500,708.223206 315.719635,696.799316 318.311340,685.359680 
	C317.051788,684.984619 315.517426,684.466980 313.952118,684.071838 
	C306.713501,682.244751 306.710419,682.256958 307.280090,673.868652 
	C318.968079,676.623657 330.519989,679.346619 342.129333,682.083130 
	C341.512939,685.102844 341.060883,687.317505 340.521545,689.959778 
	C336.322479,689.489380 332.117035,689.018250 327.211029,688.468689 
	C325.547882,695.571045 323.779297,703.123596 321.995911,711.087646 
z"/>
<path fill="#E22626" opacity="1.000000" stroke="none" 
	d="
M345.315277,695.358521 
	C346.122345,691.259583 346.719757,687.546448 347.457520,682.960693 
	C350.348175,683.320129 353.437073,683.704163 356.558746,684.092285 
	C354.180542,698.399719 351.869659,712.302185 349.448730,726.866516 
	C347.562408,726.618469 344.622131,726.231934 340.237793,725.655457 
	C341.871368,715.617676 343.488495,705.680908 345.315277,695.358521 
z"/>
<path fill="#E22626" opacity="1.000000" stroke="none" 
	d="
M526.736938,687.224854 
	C527.019592,690.797913 527.019592,694.060791 527.019592,697.596863 
	C521.503662,696.593506 515.987549,698.344421 515.166199,692.037415 
	C514.894836,689.953125 515.952209,686.146484 517.248413,685.724060 
	C520.103333,684.793518 523.861755,683.246521 526.736938,687.224854 
z"/>
<path fill="#E32E2E" opacity="1.000000" stroke="none" 
	d="
M512.292786,181.257706 
	C518.739929,167.154175 525.008423,153.386398 531.282043,139.620941 
	C532.765259,136.366516 534.376404,133.200089 538.610474,133.064590 
	C543.046387,132.922638 545.067627,135.971786 546.607300,139.446747 
	C553.598389,155.225113 560.528564,171.030487 567.529358,186.804520 
	C568.160645,188.227020 569.140442,189.494873 570.015808,190.928574 
	C563.868896,192.111328 559.885803,190.708115 558.215942,185.412827 
	C555.972412,178.298355 551.825134,175.715866 544.662354,176.936035 
	C542.235535,177.349457 539.658936,177.206421 537.185425,176.964035 
	C529.008667,176.162781 522.046875,176.454437 519.424561,186.736282 
	C518.227051,191.431793 512.887390,192.209808 507.431458,191.857407 
	C509.120056,188.158020 510.618042,184.876175 512.292786,181.257706 
M528.719482,167.126938 
	C535.669739,167.708069 542.619934,168.289200 550.642883,168.960022 
	C546.511536,159.929840 543.073364,152.414810 539.194214,143.935730 
	C535.562988,151.881607 532.271606,159.083908 528.719482,167.126938 
z"/>
<path fill="#E32D2D" opacity="1.000000" stroke="none" 
	d="
M339.093597,171.086624 
	C339.276123,167.787415 339.082672,164.887192 339.707336,162.175400 
	C342.212250,151.300720 354.935638,146.134918 364.717560,151.882812 
	C365.996948,152.634583 367.187439,153.537674 368.539795,154.452332 
	C372.874786,150.426743 377.982117,148.935318 383.746887,149.812561 
	C390.317017,150.812332 396.587921,156.085938 396.953247,162.343628 
	C397.521576,172.078934 397.103485,181.871841 397.103485,191.672485 
	C391.403320,190.915771 389.099854,188.792145 388.846161,183.540924 
	C388.581451,178.060989 388.776550,172.560364 388.679932,167.070389 
	C388.584045,161.620102 385.415649,158.217041 380.631653,158.271118 
	C375.859100,158.325058 372.907593,161.692780 372.879669,167.262634 
	C372.839050,175.373718 372.869263,183.485153 372.869263,191.622787 
	C366.774689,191.201233 364.183960,188.714874 364.052216,183.300613 
	C363.922668,177.978043 364.103546,172.648239 363.997162,167.324646 
	C363.886261,161.774841 360.822632,158.362717 356.119446,158.288376 
	C351.144135,158.209763 348.051819,161.680420 347.990021,167.532654 
	C347.935547,172.691391 348.102661,177.855301 347.934357,183.009186 
	C347.758057,188.410065 345.269958,190.943558 339.093628,191.853073 
	C339.093628,185.033752 339.093628,178.302979 339.093597,171.086624 
z"/>
<path fill="#E32D2D" opacity="1.000000" stroke="none" 
	d="
M278.030304,146.915390 
	C268.314728,139.990997 257.447266,139.197632 248.743317,144.670822 
	C241.214066,149.405319 237.096771,156.087357 238.228592,165.161407 
	C239.267670,173.491928 246.902756,181.009659 255.792145,182.892624 
	C263.508057,184.527008 270.689117,183.285492 277.057587,178.425812 
	C280.815918,175.557892 284.665497,174.517319 289.147644,177.583786 
	C286.643280,182.918152 282.137634,185.948837 277.297913,188.515701 
	C257.087280,199.235016 232.049728,186.584076 229.488205,164.412918 
	C228.221405,153.448288 235.060974,141.918457 246.277771,136.109863 
	C262.512878,127.702538 283.040039,134.010559 290.988892,150.086807 
	C285.755859,153.236725 281.949188,150.586411 278.030304,146.915390 
z"/>
<path fill="#E32B2B" opacity="1.000000" stroke="none" 
	d="
M431.826263,159.858551 
	C418.885468,155.309525 410.581238,161.011414 410.484161,174.159622 
	C410.425171,182.148071 410.571869,190.138977 410.437744,198.125610 
	C410.346832,203.539520 407.813751,206.071594 402.137238,206.798676 
	C402.137238,193.524948 401.287567,180.202469 402.386536,167.042709 
	C403.397705,154.934601 416.111176,147.608185 429.504822,149.836380 
	C441.330475,151.803741 449.314301,162.930222 447.244537,174.646713 
	C444.956299,187.600052 430.850037,194.903641 417.853088,190.966919 
	C413.642578,189.691559 412.316406,186.048462 413.317535,179.849319 
	C419.068054,182.982681 425.135681,184.692886 431.224457,181.762482 
	C433.752533,180.545761 436.180939,178.208221 437.589539,175.766037 
	C440.684937,170.399460 438.464325,164.693924 431.826263,159.858551 
z"/>
<path fill="#E32D2D" opacity="1.000000" stroke="none" 
	d="
M292.145844,179.613647 
	C288.476562,170.053635 290.219788,161.794937 296.980804,155.619400 
	C304.244629,148.984589 316.408722,147.535721 325.472717,152.225677 
	C333.561859,156.411209 337.910858,164.270081 337.043762,173.135086 
	C336.233826,181.415817 329.898621,188.544907 321.142334,191.029160 
	C311.069641,193.886887 300.181519,190.762756 294.447266,183.324524 
	C293.639008,182.276093 293.012268,181.087723 292.145844,179.613647 
M309.257416,182.763916 
	C312.068695,182.784058 314.960815,183.242462 317.675995,182.741653 
	C325.631714,181.274277 330.260406,173.598114 327.623230,166.769791 
	C325.539734,161.375046 318.620605,157.655869 311.992706,158.368042 
	C305.361023,159.080643 299.957764,163.532761 299.068329,169.017303 
	C298.140289,174.740036 301.445984,179.505188 309.257416,182.763916 
z"/>
<path fill="#E33131" opacity="1.000000" stroke="none" 
	d="
M442.068604,132.891556 
	C459.653503,132.891556 476.750916,132.891556 493.872559,132.891556 
	C493.552795,138.834290 491.045990,141.471039 485.464966,141.669647 
	C479.828064,141.870224 474.178436,141.713837 467.858643,141.713837 
	C467.858643,158.542114 467.858643,175.067657 467.858643,191.606003 
	C461.730164,191.366684 459.000397,188.639069 458.942474,182.795288 
	C458.826965,171.141235 458.905273,159.485245 458.903625,147.830063 
	C458.903351,146.031586 458.903564,144.233109 458.903564,141.719696 
	C452.900116,141.719696 447.306732,141.833344 441.720062,141.688599 
	C435.812836,141.535538 433.381317,139.185699 432.648987,132.891556 
	C435.662872,132.891556 438.621979,132.891556 442.068604,132.891556 
z"/>
<path fill="#E32C2C" opacity="1.000000" stroke="none" 
	d="
M496.849884,158.999939 
	C496.849884,150.210449 496.849884,141.920959 496.849884,133.635406 
	C502.823975,133.618378 505.731049,136.548294 505.815430,142.984650 
	C505.961334,154.110199 505.858856,165.238998 505.860107,176.366440 
	C505.860687,181.461670 505.860229,186.556885 505.860229,191.678207 
	C499.624359,191.285202 497.035583,188.766937 496.912872,182.916321 
	C496.749207,175.113861 496.858063,167.305679 496.849884,158.999939 
z"/>
<path fill="#E85656" opacity="1.000000" stroke="none" 
	d="
M577.426758,182.831390 
	C576.566589,185.047256 575.934509,187.668518 574.334229,188.568893 
	C573.292114,189.155167 570.396606,187.631409 569.204285,186.281784 
	C568.580139,185.575333 569.680786,181.891785 570.274719,181.820465 
	C572.537720,181.548813 574.911560,182.200104 577.426758,182.831390 
z"/>
<path fill="#FEFEFE" opacity="1.000000" stroke="none" 
	d="
M255.035919,555.961060 
	C280.688568,544.136536 306.949799,535.469238 334.853729,530.146545 
	C334.853729,546.302185 334.853729,561.908875 334.853729,577.993530 
	C347.156860,577.993530 359.072784,577.993530 371.636536,577.993530 
	C371.636536,590.506470 371.636536,602.566223 371.636536,615.109070 
	C374.017822,615.245300 375.779602,615.432312 377.541504,615.433838 
	C400.031525,615.453735 422.521637,615.481445 445.011566,615.435913 
	C462.076172,615.401306 469.553772,607.795044 469.558807,590.611145 
	C469.564117,572.452515 469.560028,554.293945 469.560028,536.135315 
	C469.560028,534.333252 469.560028,532.531189 469.560028,530.750427 
	C493.360870,529.854309 576.530029,563.988647 596.031433,582.451233 
	C490.027161,677.609680 318.660797,679.997131 208.696976,582.149292 
	C223.275269,571.974976 238.778687,563.688232 255.035919,555.961060 
z"/>
<path fill="#FBFCFC" opacity="1.000000" stroke="none" 
	d="
M385.008179,517.610107 
	C380.548676,517.609924 376.587921,517.609924 372.059082,517.609924 
	C372.059082,534.028137 372.059082,549.928528 372.059082,566.216064 
	C363.431763,566.216064 355.373230,566.216064 347.011261,566.216064 
	C346.879028,564.782043 346.659027,563.499207 346.657654,562.216064 
	C346.636597,542.736023 346.602570,523.255798 346.666840,503.775940 
	C346.690674,496.548676 350.467804,492.381683 357.598999,492.323608 
	C377.910004,492.158142 398.223236,492.268463 418.535583,492.292084 
	C419.162994,492.292816 419.790161,492.534149 420.666382,492.714569 
	C420.666382,500.784607 420.666382,508.713348 420.666382,517.610229 
	C408.955505,517.610229 397.231201,517.610229 385.008179,517.610107 
z"/>
<path fill="#FCFCFC" opacity="1.000000" stroke="none" 
	d="
M457.794006,532.452515 
	C457.801270,552.572205 457.815918,572.233459 457.796295,591.894775 
	C457.787415,600.807495 455.113983,603.425720 446.125275,603.428162 
	C427.463684,603.433350 408.802124,603.429504 390.140533,603.429382 
	C388.190491,603.429382 386.240448,603.429321 383.962769,603.429321 
	C383.962769,594.904480 383.962769,586.983521 383.962769,578.433960 
	C399.865875,578.433960 415.741302,578.433960 432.230896,578.433960 
	C432.230896,561.940857 432.230896,546.054321 432.230896,529.398315 
	C440.567841,529.398315 448.312347,529.341309 456.051880,529.510498 
	C456.648193,529.523438 457.209747,531.128906 457.794006,532.452515 
z"/>
<path fill="#FBFBFC" opacity="1.000000" stroke="none" 
	d="
M420.959229,545.003845 
	C420.959198,552.293945 420.959198,559.085144 420.959198,566.613708 
	C413.133270,566.613708 405.702423,566.673645 398.273193,566.591797 
	C393.650116,566.540833 387.080292,568.034912 384.920929,565.642883 
	C382.445923,562.901184 383.740784,556.628357 383.657715,551.885071 
	C383.530090,544.598816 383.624176,537.308716 383.624176,529.657837 
	C396.141418,529.657837 408.174622,529.657837 420.959229,529.657837 
	C420.959229,534.680176 420.959229,539.592590 420.959229,545.003845 
z"/>
<path fill="#868E95" opacity="1.000000" stroke="none" 
	d="
M646.056274,598.008423 
	C644.539429,597.723877 642.745239,597.818054 641.498779,597.037476 
	C640.128845,596.179626 639.263123,594.516541 638.177795,593.204224 
	C639.880127,592.209412 641.704346,590.286682 643.249268,590.489502 
	C644.695984,590.679565 646.018616,593.014526 647.027283,594.634949 
	C647.345337,595.145874 646.473816,596.397278 646.082214,597.692261 
	C646.017700,598.074768 646.020264,598.001648 646.056274,598.008423 
z"/>
<path fill="#E22929" opacity="1.000000" stroke="none" 
	d="
M502.390839,329.689270 
	C509.787140,340.496796 509.171021,354.118286 501.189148,362.005096 
	C494.527924,368.587036 483.855621,370.207428 475.856842,365.851288 
	C466.698242,360.863525 462.093353,350.253571 464.450073,339.420349 
	C466.296356,330.933350 471.163635,324.985016 479.650970,322.647522 
	C488.443085,320.226105 496.022980,322.587646 502.390839,329.689270 
z"/>
<path fill="#E32F2F" opacity="1.000000" stroke="none" 
	d="
M248.924911,339.585327 
	C239.686935,339.585297 230.938705,339.585297 222.197098,339.585297 
	C222.226990,328.813232 230.646301,320.578003 240.835617,320.859650 
	C250.443588,321.125244 258.092896,329.368713 257.728210,339.585358 
	C254.973145,339.585358 252.193909,339.585358 248.924911,339.585327 
z"/>
<path fill="#000000" opacity="1.000000" stroke="none" 
	d="
M274.080322,682.813416 
	C274.928894,679.822876 275.819641,677.228455 276.739075,674.644165 
	C276.898346,674.196533 277.087463,673.518982 277.417267,673.408447 
	C282.684998,671.643372 286.496277,675.351196 290.495483,677.494751 
	C291.652588,678.114929 291.877167,682.008484 291.270996,684.022705 
	C290.379089,686.986450 288.177490,688.931213 284.467590,687.248169 
	C281.104401,685.722412 277.583557,684.544312 274.080322,682.813416 
z"/>
<path fill="#000000" opacity="1.000000" stroke="none" 
	d="
M474.228729,689.000000 
	C480.417725,688.850647 486.888855,687.779053 489.162537,694.930298 
	C490.359222,698.694214 490.832306,703.381042 489.653748,707.008301 
	C488.523376,710.487366 486.357422,714.981262 480.370270,713.499939 
	C478.413818,713.015808 475.856354,714.960754 473.063416,715.981262 
	C471.342285,707.282532 469.671631,698.838928 467.862915,689.697571 
	C470.053986,689.438721 471.910736,689.219360 474.228729,689.000000 
z"/>
<path fill="#FEF8F8" opacity="1.000000" stroke="none" 
	d="
M528.849854,166.706573 
	C532.271606,159.083908 535.562988,151.881607 539.194214,143.935730 
	C543.073364,152.414810 546.511536,159.929840 550.642883,168.960022 
	C542.619934,168.289200 535.669739,167.708069 528.849854,166.706573 
z"/>
<path fill="#FEFAFA" opacity="1.000000" stroke="none" 
	d="
M308.857910,182.658478 
	C301.445984,179.505188 298.140289,174.740036 299.068329,169.017303 
	C299.957764,163.532761 305.361023,159.080643 311.992706,158.368042 
	C318.620605,157.655869 325.539734,161.375046 327.623230,166.769791 
	C330.260406,173.598114 325.631714,181.274277 317.675995,182.741653 
	C314.960815,183.242462 312.068695,182.784058 308.857910,182.658478 
z"/>
</svg>