<svg version="1.1" id="Layer_1" xmlns="http://www.w3.org/2000/svg" xmlns:xlink="http://www.w3.org/1999/xlink" x="0px" y="0px"
	 width="100%" viewBox="0 0 800 730" enable-background="new 0 0 800 730" xml:space="preserve">
<path fill="#E22727" opacity="1.000000" stroke="none" 
	d="
M0.999989,428.000000 
	C1.000000,362.312439 1.000000,296.624878 1.468657,230.468903 
	C23.901867,229.944565 45.866417,229.888641 68.297760,229.906738 
	C73.024025,229.944504 77.283485,229.908264 82.046448,229.927063 
	C94.718575,229.936035 106.887215,229.889923 119.512650,229.903366 
	C124.031662,229.926804 128.093887,229.890701 132.610565,229.903290 
	C133.897781,229.967285 134.730560,229.996002 135.563339,229.996002 
	C312.176331,229.998032 488.789337,229.998367 665.402344,229.992172 
	C666.899841,229.992126 668.397278,229.902939 670.361023,229.911240 
	C674.866394,229.925659 678.905579,229.884216 683.412476,229.910767 
	C696.093506,229.945984 708.306641,229.913254 720.950684,229.928055 
	C725.644104,229.927979 729.906555,229.880356 734.622681,229.900482 
	C747.733215,229.978973 760.391113,230.090775 773.046814,229.967041 
	C782.390747,229.875702 789.212402,233.981201 794.318237,241.599243 
	C796.303711,244.561539 798.758850,247.209076 801.000000,250.000000 
	C801.000000,315.687561 801.000000,381.375122 800.531372,447.531097 
	C782.072266,448.036285 764.081787,448.073059 745.729248,447.897400 
	C741.270935,447.645660 737.174683,447.606384 732.609253,447.458801 
	C720.407898,447.422852 708.675720,447.495178 696.495544,447.474609 
	C692.263611,447.431335 688.479553,447.480957 684.185791,447.448151 
	C682.843201,447.346924 682.010437,447.311768 681.177612,447.311737 
	C494.712646,447.309174 308.247681,447.308533 121.782730,447.318115 
	C120.287888,447.318176 118.793037,447.457977 116.903809,447.443237 
	C112.708748,447.423035 108.908081,447.492157 104.633148,447.465210 
	C92.413124,447.433716 80.667374,447.498291 68.478188,447.471405 
	C63.971947,447.626770 59.909142,447.873566 55.389477,448.073029 
	C47.470356,448.016937 40.008045,447.986908 32.545845,448.004395 
	C21.223547,448.030914 12.446076,443.460449 6.247579,433.866150 
	C4.841177,431.689301 2.766861,429.943970 0.999989,428.000000 
M156.967346,307.160492 
	C164.021423,309.857147 171.075500,312.553772 178.852997,315.526947 
	C181.181549,312.256042 184.132339,308.111115 187.054642,304.006195 
	C174.618576,291.968018 150.082855,287.705841 134.997269,294.998047 
	C124.407852,300.116913 118.960640,308.759521 119.090645,320.556519 
	C119.219673,332.265381 125.464737,339.836914 136.102905,343.946960 
	C140.277985,345.560028 144.657944,346.636902 148.922882,348.024628 
	C155.073853,350.025970 161.508255,351.466644 167.269714,354.277832 
	C174.878494,357.990479 175.119781,367.439819 168.056732,372.143311 
	C165.790115,373.652710 162.819672,375.106354 160.255737,374.972107 
	C153.715179,374.629730 146.954880,374.213501 140.789886,372.240967 
	C135.279068,370.477753 130.446091,366.596039 125.074265,363.511383 
	C121.940895,367.258820 118.664856,371.176849 115.021317,375.534424 
	C119.156662,378.344025 122.657204,381.221710 126.581352,383.299194 
	C140.999863,390.932556 156.118271,393.309143 171.863129,387.942017 
	C182.468079,384.326965 189.326813,374.986786 190.086685,364.522095 
	C190.979919,352.220306 185.856430,343.557526 174.756744,338.579468 
	C170.232925,336.550568 165.339630,335.347961 160.620453,333.751648 
	C154.335190,331.625641 147.733307,330.127228 141.853607,327.187012 
	C134.102341,323.310822 134.221909,312.924316 142.094574,309.332062 
	C146.236404,307.442139 151.387192,307.763397 156.967346,307.160492 
M206.724716,330.276917 
	C194.697540,349.005219 198.870743,373.454773 216.055634,384.944092 
	C231.994904,395.600616 256.353760,391.895630 266.936249,376.998199 
	C263.774597,374.217499 260.595276,371.421265 257.303589,368.526215 
	C248.721069,376.396667 239.422012,379.814636 228.604324,375.165314 
	C221.830170,372.253876 218.282150,366.718353 217.070480,358.998718 
	C235.004150,358.998718 252.447372,358.998718 269.831207,358.998718 
	C272.348785,340.533661 264.060120,323.669739 249.816559,317.785156 
	C234.165497,311.319000 217.499817,315.958893 206.724716,330.276917 
M614.897034,353.324799 
	C613.051086,358.369507 611.205139,363.414215 609.003113,369.432068 
	C608.025818,367.180359 607.475342,366.030090 607.019409,364.843445 
	C601.355713,350.101044 595.746277,335.337524 589.989929,320.631531 
	C589.410583,319.151581 588.042847,316.978363 586.905029,316.890594 
	C581.688599,316.488251 576.423706,316.713562 570.622375,316.713562 
	C571.506226,318.951660 572.077454,320.470337 572.701355,321.967072 
	C581.399231,342.836151 590.113037,363.698639 598.803040,384.571014 
	C601.814575,391.804260 597.335083,398.017639 589.441772,397.313324 
	C586.526550,397.053162 583.680054,396.024414 580.438477,395.260529 
	C578.639771,399.188660 576.813782,403.176453 575.011719,407.111969 
	C592.446960,416.991302 607.271179,412.161591 615.093872,394.524078 
	C615.430847,393.764252 615.782166,393.009247 616.082214,392.234711 
	C625.269165,368.519684 634.455933,344.804565 643.618225,321.079956 
	C644.113403,319.797821 644.395935,318.433533 644.897522,316.690369 
	C640.026245,316.690369 635.699219,316.900848 631.404236,316.620148 
	C628.273560,316.415558 627.145264,317.763702 626.226196,320.538300 
	C622.673096,331.265503 618.849670,341.903168 614.897034,353.324799 
M355.517487,363.110748 
	C355.728363,374.547150 359.232788,384.217224 370.646545,388.905823 
	C381.852875,393.509186 392.924438,390.596069 401.904205,381.314636 
	C402.376801,380.826141 403.105286,380.585236 404.298401,379.887909 
	C404.298401,383.348572 404.298401,386.116669 404.298401,388.923950 
	C410.037598,388.923950 415.387817,388.923950 420.716797,388.923950 
	C420.716797,364.729828 420.716797,340.985291 420.716797,317.099915 
	C415.110657,317.099915 409.758575,317.099915 404.087067,317.099915 
	C404.087067,319.478546 404.092957,321.451752 404.086090,323.424896 
	C404.043701,335.577362 404.267395,347.738739 403.866791,359.879425 
	C403.562042,369.115936 397.010010,375.256714 388.271606,375.448059 
	C379.302551,375.644440 373.574341,370.547760 372.661407,360.852203 
	C372.101624,354.907013 372.291473,348.885986 372.252350,342.898285 
	C372.196106,334.297272 372.237976,325.695648 372.237976,317.002075 
	C366.408966,317.002075 361.179291,317.002075 355.516998,317.002075 
	C355.516998,332.266144 355.516998,347.223846 355.517487,363.110748 
M279.018768,354.423950 
	C279.552765,371.480072 290.254791,385.244629 306.420868,389.667511 
	C321.679169,393.842041 338.936920,388.326233 346.171387,376.716370 
	C343.011688,373.704712 339.799347,370.642914 336.650726,367.641846 
	C321.419250,378.217377 310.896271,378.856934 302.418121,369.947388 
	C294.118988,361.225983 293.293549,346.703552 301.363373,337.538757 
	C304.258606,334.250702 308.665680,331.445404 312.884583,330.346588 
	C321.885559,328.002350 329.248169,332.502594 335.598633,338.903320 
	C339.310425,334.892548 342.564270,331.376617 345.777771,327.904266 
	C337.077362,316.487915 319.881927,311.976135 304.758972,316.925018 
	C289.045013,322.067322 279.107269,336.186127 279.018768,354.423950 
M551.776855,375.412048 
	C545.788879,374.219452 544.023560,372.286438 543.968628,366.433533 
	C543.891968,358.270294 543.948303,350.105743 543.947815,341.941772 
	C543.947571,338.363495 543.947754,334.785187 543.947754,330.876587 
	C550.835815,330.876587 556.942383,330.876587 563.239624,330.876587 
	C563.239624,326.091705 563.239624,321.656982 563.239624,316.623840 
	C556.769287,316.623840 550.529175,316.623840 543.811157,316.623840 
	C543.811157,309.615509 543.811157,303.194977 543.811157,296.726196 
	C537.936890,296.726196 532.566650,296.726196 526.682617,296.726196 
	C526.682617,303.532013 526.682617,309.938171 526.682617,316.512451 
	C523.435913,316.661530 520.705505,316.786926 518.044861,316.909119 
	C518.044861,321.876709 518.044861,326.287201 518.044861,331.160889 
	C521.086975,331.160889 523.827881,331.160889 526.929993,331.160889 
	C526.929993,333.434052 526.924133,335.235443 526.930969,337.036743 
	C526.974670,348.531921 526.836731,360.031891 527.133240,371.520599 
	C527.323303,378.884430 529.755371,385.468842 537.154419,388.565918 
	C544.885132,391.801819 552.807373,391.255585 560.464539,388.080963 
	C561.643921,387.591980 562.900696,385.818512 563.023926,384.533844 
	C563.370789,380.919220 563.144958,377.249664 563.144958,373.640930 
	C559.417480,374.332458 556.029053,374.961090 551.776855,375.412048 
M694.296387,329.526276 
	C694.296387,322.096558 694.296387,314.666870 694.296387,307.378723 
	C688.636902,307.378723 683.585876,307.378723 678.019409,307.378723 
	C678.019409,316.145874 678.019409,324.528595 678.019409,333.358337 
	C669.091064,333.358337 660.685425,333.358337 652.248657,333.358337 
	C652.248657,338.586121 652.248657,343.333954 652.248657,348.588074 
	C660.930908,348.588074 669.339172,348.588074 678.453613,348.588074 
	C678.453613,357.592987 678.453613,366.110382 678.453613,374.496277 
	C684.085449,374.496277 688.990417,374.496277 694.480347,374.496277 
	C694.480347,365.796143 694.480347,357.414490 694.480347,348.498535 
	C703.462524,348.498535 711.864075,348.498535 720.310547,348.498535 
	C720.310547,343.063446 720.310547,338.194916 720.310547,333.091370 
	C712.578491,333.091370 705.262329,333.209839 697.957397,332.976624 
	C696.716187,332.936981 695.523254,331.387939 694.296387,329.526276 
M463.760254,320.180389 
	C460.866943,323.422424 457.973663,326.664459 454.669159,330.367279 
	C454.669159,325.650055 454.669159,321.379242 454.669159,317.122925 
	C448.872528,317.122925 443.507324,317.122925 438.194946,317.122925 
	C438.194946,341.314270 438.194946,365.072296 438.194946,388.971924 
	C443.799957,388.971924 449.152252,388.971924 454.817413,388.971924 
	C454.817413,383.436523 454.794067,378.296661 454.823853,373.157074 
	C454.854736,367.829132 454.666290,362.481934 455.048737,357.177399 
	C456.115143,342.385986 463.822571,334.587189 478.539490,332.997131 
	C479.137665,332.932495 479.713501,332.661255 480.135132,332.535400 
	C480.135132,326.635773 480.135132,321.053833 480.135132,315.308075 
	C474.059906,314.830841 468.995361,316.549561 463.760254,320.180389 
M489.994263,352.500000 
	C489.994263,364.611664 489.994263,376.723328 489.994263,389.023560 
	C495.922791,389.023560 501.299164,389.023560 506.729645,389.023560 
	C506.729645,364.791473 506.729645,340.912567 506.729645,317.129089 
	C500.989685,317.129089 495.609344,317.129089 489.994263,317.129089 
	C489.994263,328.878265 489.994263,340.189148 489.994263,352.500000 
M499.411285,289.383179 
	C496.167328,289.383179 492.923370,289.383179 489.709900,289.383179 
	C489.709900,295.245758 489.709900,300.296936 489.709900,305.503174 
	C495.690094,305.503174 501.273499,305.503174 507.146210,305.503174 
	C507.146210,300.100922 507.146210,294.921112 507.146210,289.383209 
	C504.622131,289.383209 502.485565,289.383209 499.411285,289.383179 
z"/>
<path fill="#000000" opacity="1.000000" stroke="none" 
	d="
M746.091370,448.109863 
	C764.081787,448.073059 782.072266,448.036285 800.531372,447.999756 
	C801.000000,542.269409 801.000000,636.538879 801.000000,731.000000 
	C680.312500,731.000000 559.624939,731.000000 438.500824,730.578186 
	C442.591675,729.283508 447.119019,728.410706 451.995728,727.470459 
	C451.995728,725.151001 451.995728,722.703796 451.995728,719.670593 
	C443.357635,720.526184 435.414246,721.312988 426.948059,722.151611 
	C426.948059,718.775635 426.948059,716.067749 426.948059,712.802307 
	C433.371643,712.093689 440.002594,711.362183 446.674072,710.626221 
	C446.674072,707.671509 446.674072,704.937927 446.674072,702.313721 
	C439.727448,702.974365 433.099670,703.604736 426.253296,704.255920 
	C426.041748,700.756592 425.877991,698.047974 425.713287,695.323120 
	C433.307007,694.488831 440.964172,693.647583 448.649811,692.803223 
	C448.303711,690.173523 447.993500,687.816467 447.575470,684.640259 
	C436.984100,685.779480 426.514923,686.905579 415.799408,688.058167 
	C416.910126,702.960571 417.955078,716.980286 419.000000,731.000000 
	C415.638702,731.000000 412.277435,731.000000 408.458069,730.531372 
	C408.000000,718.767273 408.001129,707.471924 407.999634,696.176514 
	C407.998474,687.543823 407.538452,687.171448 399.000000,688.404968 
	C399.000000,702.656067 399.000000,716.828064 399.000000,731.000000 
	C388.645782,731.000000 378.291534,731.000000 367.294922,730.569641 
	C366.652496,724.498779 366.652496,718.858215 366.652496,713.184448 
	C372.290375,713.504639 376.873688,713.697632 381.445801,714.039917 
	C388.947693,714.601501 389.720276,713.795593 388.403961,706.278015 
	C381.758392,705.736145 375.075439,705.191223 368.346680,704.642517 
	C368.346680,701.358704 368.346680,698.304199 368.346680,694.895752 
	C376.316711,695.590820 383.926056,696.254517 391.662415,696.929260 
	C391.662415,693.757019 391.662415,691.039795 391.662415,688.341675 
	C381.046783,687.491028 370.771057,686.667664 359.652008,685.776672 
	C358.864990,700.373840 358.114075,714.301697 357.390289,727.725708 
	C358.363403,728.946594 359.181702,729.973328 360.000000,731.000000 
	C240.412430,731.000000 120.824867,731.000000 1.000000,731.000000 
	C1.000000,630.312561 1.000000,529.624939 0.999989,428.468689 
	C2.766861,429.943970 4.841177,431.689301 6.247579,433.866150 
	C12.446076,443.460449 21.223547,448.030914 32.545845,448.004395 
	C40.008045,447.986908 47.470356,448.016937 55.420677,448.460022 
	C58.388008,457.085876 60.714886,465.327728 63.398502,473.451721 
	C65.281609,479.152252 67.488457,484.761414 69.841988,490.287292 
	C73.226715,498.234344 76.638939,506.186279 80.473747,513.920776 
	C85.106117,523.263794 89.955887,532.518066 95.161797,541.551331 
	C98.895599,548.030090 103.362427,554.086975 107.513657,560.324463 
	C110.550591,564.887634 113.194801,569.791321 116.738365,573.921814 
	C124.253563,582.681702 132.217178,591.058472 140.044128,599.548767 
	C145.663773,605.644775 151.414612,611.620361 156.995911,617.750732 
	C159.327209,620.311401 161.542786,619.750671 163.728165,617.877136 
	C174.557266,608.593445 185.337479,599.252686 195.719910,590.290222 
	C255.561493,640.085999 323.023132,666.941772 400.711548,667.052429 
	C478.698151,667.163513 546.371948,640.143188 605.758423,590.738953 
	C609.103333,593.295715 612.698425,595.798462 616.012451,598.630310 
	C622.032043,603.774170 628.138245,608.860352 633.724182,614.454041 
	C637.971680,618.707397 642.393860,620.132874 645.811707,616.709106 
	C652.887024,609.621399 659.912231,602.466919 666.622314,595.036743 
	C671.630676,589.490906 676.134277,583.487122 680.822754,577.655212 
	C686.073120,571.124268 691.736206,564.864929 696.397339,557.934265 
	C703.566956,547.273499 710.720703,536.573242 715.829163,524.637512 
	C720.425903,513.897278 726.225220,503.649841 730.461792,492.782654 
	C736.188477,478.093201 740.928223,463.019012 746.091370,448.109863 
M485.362213,682.084900 
	C483.294708,681.209595 481.134277,679.421387 479.176178,679.620667 
	C471.671143,680.384644 464.252716,681.964355 456.757843,682.877197 
	C452.928345,683.343628 452.764435,684.907349 453.523376,688.215088 
	C456.119019,699.527649 458.347687,710.924377 460.717712,722.288757 
	C461.223633,724.714539 461.643524,726.546021 465.194214,725.501831 
	C469.700226,724.176758 474.471344,723.726318 479.143951,723.000732 
	C486.374329,721.877930 491.457306,717.141724 494.580017,711.389099 
	C499.633331,702.080139 494.847046,687.900940 485.362213,682.084900 
M277.100128,663.589905 
	C274.274323,662.798523 271.448486,662.007141 268.023407,661.047913 
	C263.086090,674.626770 258.119293,688.286865 253.071289,702.170227 
	C256.588318,703.337646 258.987030,704.133911 261.936401,705.112915 
	C263.569824,700.309082 265.119507,695.751465 266.968353,690.314026 
	C269.440399,692.225891 272.764618,693.535950 273.814972,695.869507 
	C276.061340,700.860229 277.131317,706.380371 278.790314,712.050049 
	C281.734924,712.783630 285.006714,713.598694 288.745087,714.530029 
	C286.825104,707.716675 285.260712,702.165283 283.777588,696.902222 
	C286.488708,695.818054 288.379333,694.812683 290.395233,694.302612 
	C296.426605,692.776611 297.129578,687.651733 297.904724,682.916809 
	C298.764648,677.663879 296.821289,673.388184 291.759857,670.909180 
	C287.077423,668.615845 282.422302,666.266663 277.100128,663.589905 
M592.581177,625.943542 
	C584.018066,631.301514 575.454956,636.659546 566.953003,641.979248 
	C569.038391,646.316284 570.599854,650.603638 573.016602,654.337402 
	C576.349243,659.486328 580.345581,664.203918 584.017944,669.135803 
	C585.076477,670.557373 586.435486,671.954468 586.904480,673.579834 
	C588.538330,679.241394 589.585876,679.755432 594.087036,676.484619 
	C594.475159,676.202698 595.008362,676.126404 595.415405,675.863586 
	C602.907898,671.025085 610.391418,666.172729 618.006836,661.239197 
	C617.537903,660.213135 617.223694,659.069214 616.568909,658.174622 
	C614.211243,654.953796 612.007690,653.771973 608.195923,657.050964 
	C603.773926,660.854858 598.481873,663.647400 593.617493,666.846008 
	C588.815247,660.443176 588.999878,658.893311 594.125122,655.674255 
	C597.480042,653.567200 600.728699,651.283264 603.950928,648.975098 
	C606.935364,646.837341 604.560425,644.504944 603.635620,642.632690 
	C603.292664,641.938416 600.464966,641.677246 599.371094,642.290344 
	C595.343933,644.547546 591.627869,647.353394 587.658325,649.724426 
	C586.613098,650.348633 584.891541,650.650024 583.799438,650.243408 
	C579.527405,648.652771 579.036682,644.674194 582.770996,642.093750 
	C587.125305,639.084656 591.779785,636.489746 595.972839,633.282166 
	C596.980896,632.511108 597.107971,629.967712 596.867920,628.354248 
	C596.610352,626.623108 596.168518,624.067383 592.581177,625.943542 
M252.030136,675.453857 
	C252.396179,674.167053 252.762207,672.880310 252.789734,672.783569 
	C246.418732,669.447266 240.758682,666.483337 234.749329,663.336426 
	C236.398544,660.559326 237.951080,657.945007 239.302841,655.668823 
	C246.253662,659.239685 253.124573,662.769470 260.088745,666.347229 
	C261.420044,663.386902 262.531433,660.915649 263.608765,658.520020 
	C253.715363,653.422729 243.887527,648.359131 234.355133,643.447815 
	C227.500717,656.961853 221.146667,669.489319 214.597076,682.402405 
	C222.664490,686.609070 230.548920,690.425964 238.130219,694.771606 
	C243.664429,697.943848 243.358429,698.171875 246.846573,692.750610 
	C248.639221,689.964478 248.279617,688.699707 245.017746,687.953003 
	C243.013000,687.494141 241.045074,686.652100 239.217880,685.685059 
	C235.146729,683.530212 231.174301,681.188965 227.141266,678.912170 
	C229.768021,671.871765 231.631744,671.056274 237.847687,674.408997 
	C240.003738,675.571960 242.374283,676.527222 244.180283,678.109802 
	C247.980728,681.440063 250.111572,680.268738 252.030136,675.453857 
M551.165222,650.368164 
	C543.811523,653.956482 537.477356,657.388367 535.547180,667.200500 
	C532.448242,682.954163 547.622803,698.292297 561.737366,694.227295 
	C570.159485,691.801758 579.606812,683.713867 579.718323,676.455078 
	C577.137573,675.775757 574.550354,675.094727 572.015869,674.427551 
	C568.579346,682.443848 561.771912,687.254395 556.035583,685.936951 
	C549.653870,684.471375 544.549744,677.658630 545.061401,670.412903 
	C545.975769,657.464966 555.186218,657.488892 564.667480,658.716187 
	C565.179993,655.772705 565.621582,653.236450 566.309082,649.287842 
	C561.084229,649.570312 556.503540,649.817932 551.165222,650.368164 
M223.522003,637.076172 
	C221.548889,635.405945 219.666306,633.612244 217.586746,632.087158 
	C209.256699,625.978210 196.609009,626.449707 189.346176,633.325989 
	C178.707367,643.398499 179.565506,659.196594 191.039505,668.600830 
	C197.149963,673.609070 203.901825,671.663025 211.131577,671.870422 
	C210.560013,668.687317 210.060760,665.906921 209.566269,663.153076 
	C198.409698,663.906555 192.270584,660.776184 191.072540,653.644958 
	C189.954010,646.987061 193.637970,640.033020 200.251114,638.039307 
	C209.968796,635.109680 214.068985,637.614136 218.924911,649.233215 
	C221.502869,648.709839 224.171417,648.168152 227.591522,647.473877 
	C226.269379,643.984070 225.088547,640.867310 223.522003,637.076172 
M321.026703,678.525879 
	C315.579315,676.988770 310.131927,675.451599 304.265289,673.796143 
	C303.331573,676.853699 302.504456,679.562134 301.668640,682.299194 
	C306.530426,683.468140 310.725220,684.476746 314.912506,685.483521 
	C312.517120,694.559143 310.252930,703.220886 307.941681,711.869995 
	C305.860657,719.657654 307.734406,721.787537 316.420624,721.151062 
	C316.289734,719.914124 315.794159,718.573914 316.083344,717.432495 
	C318.321442,708.598083 320.629578,699.778320 323.173523,691.028931 
	C323.443573,690.100098 325.373505,689.083130 326.527740,689.089844 
	C329.899841,689.109375 333.269104,689.626404 336.527191,689.937744 
	C338.796997,682.876160 338.851776,682.695557 332.035797,680.628357 
	C328.739349,679.628479 325.192780,679.453369 321.026703,678.525879 
M350.300720,699.793213 
	C350.830231,694.678955 351.359772,689.564697 351.905853,684.290771 
	C348.878296,683.753418 346.225433,683.282593 343.036438,682.716614 
	C340.959717,697.349426 338.973969,711.341187 336.937714,725.688782 
	C340.056061,726.205627 342.821075,726.663879 345.540558,727.114624 
	C347.367859,717.756042 349.052490,709.128235 350.300720,699.793213 
M517.494324,685.003601 
	C511.988495,685.581116 511.527405,686.383179 511.424438,695.682922 
	C512.931946,696.112671 514.448975,696.703918 516.020081,696.950256 
	C517.735962,697.219299 519.501831,697.169312 521.183105,697.255127 
	C525.519958,689.269592 525.039062,687.280151 517.494324,685.003601 
z"/>
<path fill="#000000" opacity="1.000000" stroke="none" 
	d="
M801.000000,249.531342 
	C798.758850,247.209076 796.303711,244.561539 794.318237,241.599243 
	C789.212402,233.981201 782.390747,229.875702 773.046814,229.967041 
	C760.391113,230.090775 747.733215,229.978973 734.483154,229.566650 
	C731.593323,223.607941 729.655273,217.867477 726.928467,212.529984 
	C720.276306,199.509048 713.316833,186.643387 706.361938,173.779572 
	C703.271729,168.063980 700.270996,162.239044 696.550476,156.940674 
	C691.967102,150.413483 686.730652,144.338593 681.676208,138.150101 
	C675.065308,130.055954 668.462036,121.950813 661.640503,114.035706 
	C658.670410,110.589462 655.133362,107.636086 651.913025,104.399971 
	C648.986755,101.459343 646.339294,98.208122 643.207947,95.513222 
	C639.454895,92.283264 635.205566,89.636345 631.372681,86.491356 
	C623.395569,79.945915 615.811707,72.891426 607.570129,66.707329 
	C600.911255,61.710835 593.505554,57.714035 586.478210,53.200546 
	C585.042236,52.278263 583.947937,50.784809 582.464478,49.983910 
	C579.508911,48.388309 576.357666,47.160244 573.348816,45.657120 
	C563.822144,40.897911 554.618164,35.333035 544.748840,31.455330 
	C528.026184,24.884905 511.131256,18.508055 493.856934,13.659345 
	C478.287537,9.289163 462.100128,7.136060 446.220947,3.833605 
	C444.364502,3.447514 442.734802,1.971004 441.000000,1.000003 
	C560.913757,1.000000 680.827515,1.000000 801.000000,1.000000 
	C801.000000,83.687378 801.000000,166.375031 801.000000,249.531342 
z"/>
<path fill="#000000" opacity="1.000000" stroke="none" 
	d="
M67.830978,229.832718 
	C45.866417,229.888641 23.901867,229.944565 1.468657,230.000244 
	C1.000000,153.723373 1.000000,77.446762 1.000000,1.000000 
	C120.687508,1.000000 240.375092,1.000000 360.655762,1.391872 
	C354.946045,3.184759 348.657654,4.654864 342.337463,5.972429 
	C329.098358,8.732357 315.649109,10.715699 302.650024,14.327611 
	C290.546204,17.690767 278.811890,22.493528 267.098541,27.126745 
	C249.183777,34.212933 231.911209,42.658745 215.627808,53.026699 
	C208.064133,57.842632 200.386078,62.492348 192.991135,67.555214 
	C187.973160,70.990700 183.363205,75.021103 178.560165,78.771851 
	C174.101822,82.253403 169.405563,85.469116 165.219360,89.250572 
	C159.887238,94.067169 154.875076,99.250450 149.881805,104.426941 
	C140.977081,113.658432 131.306519,122.333885 123.607819,132.493423 
	C116.243492,142.211685 108.128525,151.473679 102.428970,162.536530 
	C95.994987,175.024918 88.023750,186.718048 81.511147,199.170273 
	C76.334290,209.068497 72.346611,219.588669 67.830978,229.832718 
z"/>
<path fill="#6E777F" opacity="1.000000" stroke="none" 
	d="
M68.297768,229.906738 
	C72.346611,219.588669 76.334290,209.068497 81.511147,199.170273 
	C88.023750,186.718048 95.994987,175.024918 102.428970,162.536530 
	C108.128525,151.473679 116.243492,142.211685 123.607819,132.493423 
	C131.306519,122.333885 140.977081,113.658432 149.881805,104.426941 
	C154.875076,99.250450 159.887238,94.067169 165.219360,89.250572 
	C169.405563,85.469116 174.101822,82.253403 178.560165,78.771851 
	C183.363205,75.021103 187.973160,70.990700 192.991135,67.555214 
	C200.386078,62.492348 208.064133,57.842632 215.627808,53.026699 
	C231.911209,42.658745 249.183777,34.212933 267.098541,27.126745 
	C278.811890,22.493528 290.546204,17.690767 302.650024,14.327611 
	C315.649109,10.715699 329.098358,8.732357 342.337463,5.972429 
	C348.657654,4.654864 354.946045,3.184759 361.124420,1.391872 
	C368.687592,1.000000 376.375153,1.000000 384.842529,1.279189 
	C394.026001,1.700325 402.429504,1.911697 410.833496,1.934531 
	C412.888153,1.940113 414.944458,1.328078 417.000000,1.000002 
	C424.687592,1.000000 432.375153,1.000000 440.531372,1.000003 
	C442.734802,1.971004 444.364502,3.447514 446.220947,3.833605 
	C462.100128,7.136060 478.287537,9.289163 493.856934,13.659345 
	C511.131256,18.508055 528.026184,24.884905 544.748840,31.455330 
	C554.618164,35.333035 563.822144,40.897911 573.348816,45.657120 
	C576.357666,47.160244 579.508911,48.388309 582.464478,49.983910 
	C583.947937,50.784809 585.042236,52.278263 586.478210,53.200546 
	C593.505554,57.714035 600.911255,61.710835 607.570129,66.707329 
	C615.811707,72.891426 623.395569,79.945915 631.372681,86.491356 
	C635.205566,89.636345 639.454895,92.283264 643.207947,95.513222 
	C646.339294,98.208122 648.986755,101.459343 651.913025,104.399971 
	C655.133362,107.636086 658.670410,110.589462 661.640503,114.035706 
	C668.462036,121.950813 675.065308,130.055954 681.676208,138.150101 
	C686.730652,144.338593 691.967102,150.413483 696.550476,156.940674 
	C700.270996,162.239044 703.271729,168.063980 706.361938,173.779572 
	C713.316833,186.643387 720.276306,199.509048 726.928467,212.529984 
	C729.655273,217.867477 731.593323,223.607941 734.029602,229.498901 
	C729.906555,229.880356 725.644104,229.927979 720.875366,229.551025 
	C701.923279,183.148407 674.830017,142.896118 638.895691,108.905083 
	C577.669800,50.990227 504.898895,18.945597 420.602661,13.811349 
	C365.410522,10.449752 312.428650,20.089981 261.962372,42.589031 
	C199.150024,70.592247 149.053833,113.696785 111.577484,171.360687 
	C99.581039,189.819305 89.231697,209.176163 81.542953,229.872009 
	C77.283485,229.908264 73.024025,229.944504 68.297768,229.906738 
z"/>
<path fill="#E22626" opacity="1.000000" stroke="none" 
	d="
M419.468292,731.000000 
	C417.955078,716.980286 416.910126,702.960571 415.799408,688.058167 
	C426.514923,686.905579 436.984100,685.779480 447.575470,684.640259 
	C447.993500,687.816467 448.303711,690.173523 448.649811,692.803223 
	C440.964172,693.647583 433.307007,694.488831 425.713287,695.323120 
	C425.877991,698.047974 426.041748,700.756592 426.253296,704.255920 
	C433.099670,703.604736 439.727448,702.974365 446.674072,702.313721 
	C446.674072,704.937927 446.674072,707.671509 446.674072,710.626221 
	C440.002594,711.362183 433.371643,712.093689 426.948059,712.802307 
	C426.948059,716.067749 426.948059,718.775635 426.948059,722.151611 
	C435.414246,721.312988 443.357635,720.526184 451.995728,719.670593 
	C451.995728,722.703796 451.995728,725.151001 451.995728,727.470459 
	C447.119019,728.410706 442.591675,729.283508 438.032166,730.578186 
	C431.978851,731.000000 425.957703,731.000000 419.468292,731.000000 
z"/>
<path fill="#E22626" opacity="1.000000" stroke="none" 
	d="
M360.437500,731.000000 
	C359.181702,729.973328 358.363403,728.946594 357.390289,727.725708 
	C358.114075,714.301697 358.864990,700.373840 359.652008,685.776672 
	C370.771057,686.667664 381.046783,687.491028 391.662415,688.341675 
	C391.662415,691.039795 391.662415,693.757019 391.662415,696.929260 
	C383.926056,696.254517 376.316711,695.590820 368.346680,694.895752 
	C368.346680,698.304199 368.346680,701.358704 368.346680,704.642517 
	C375.075439,705.191223 381.758392,705.736145 388.403961,706.278015 
	C389.720276,713.795593 388.947693,714.601501 381.445801,714.039917 
	C376.873688,713.697632 372.290375,713.504639 366.652496,713.184448 
	C366.652496,718.858215 366.652496,724.498779 366.826233,730.569641 
	C364.958344,731.000000 362.916656,731.000000 360.437500,731.000000 
z"/>
<path fill="#E22626" opacity="1.000000" stroke="none" 
	d="
M399.449982,731.000000 
	C399.000000,716.828064 399.000000,702.656067 399.000000,688.404968 
	C407.538452,687.171448 407.998474,687.543823 407.999634,696.176514 
	C408.001129,707.471924 408.000000,718.767273 408.000000,730.531372 
	C405.299988,731.000000 402.599976,731.000000 399.449982,731.000000 
z"/>
<path fill="#9DA4A9" opacity="1.000000" stroke="none" 
	d="
M416.531342,1.000002 
	C414.944458,1.328078 412.888153,1.940113 410.833496,1.934531 
	C402.429504,1.911697 394.026001,1.700325 385.311157,1.279189 
	C395.354218,1.000000 405.708466,1.000000 416.531342,1.000002 
z"/>
<path fill="#FFFEFE" opacity="1.000000" stroke="none" 
	d="
M669.894775,229.855377 
	C668.397278,229.902939 666.899841,229.992126 665.402344,229.992172 
	C488.789337,229.998367 312.176331,229.998032 135.563339,229.996002 
	C134.730560,229.996002 133.897781,229.967285 132.688797,229.574768 
	C166.906555,159.143036 220.097443,108.862625 292.849304,80.176605 
	C357.962067,54.502682 424.352966,52.768055 491.061584,73.624611 
	C542.605225,89.739792 586.298401,118.513680 622.467590,158.593658 
	C641.774475,179.988205 657.741211,203.668655 669.894775,229.855377 
M565.629272,184.588364 
	C558.758911,169.620102 551.881836,154.654953 545.023315,139.681259 
	C543.439026,136.222458 541.619690,133.041183 537.142944,133.162277 
	C532.936707,133.276047 531.262512,136.341690 529.757935,139.639801 
	C522.299194,155.989883 514.797363,172.320343 507.338989,188.670609 
	C506.896912,189.639740 506.700531,190.720963 506.365784,191.829819 
	C514.197632,192.193863 516.626953,190.781876 519.963379,182.598526 
	C521.712585,178.308228 523.986816,176.432861 528.770142,176.895493 
	C533.723206,177.374512 538.825195,177.514893 543.741821,176.876984 
	C550.433716,176.008728 554.025696,178.389786 556.293091,184.745453 
	C558.446106,190.780609 561.627991,192.053833 568.184998,191.212982 
	C567.785706,190.107269 567.409546,189.065674 567.918701,188.011627 
	C569.007751,188.370804 570.421021,189.343002 571.123718,188.971466 
	C573.048950,187.953430 575.725769,186.660965 576.199463,184.949692 
	C577.159058,181.482910 573.360474,181.399078 571.631714,181.686737 
	C569.566406,182.030426 567.772766,184.007034 565.629272,184.588364 
M286.786285,179.512909 
	C286.100311,178.379578 285.289490,176.217972 284.749054,176.283569 
	C281.750366,176.647598 278.763916,177.385712 275.873505,178.309296 
	C270.584412,179.999313 265.454834,183.077850 260.098877,183.487488 
	C248.254807,184.393341 237.929031,175.384888 236.517441,164.269730 
	C235.304855,154.721710 242.963028,144.677139 253.546494,142.078140 
	C262.820404,139.800735 271.026550,141.934616 278.037048,148.421249 
	C281.370209,151.505341 284.874084,152.905823 289.440155,150.198242 
	C289.033752,149.311874 288.765472,148.559570 288.367584,147.883545 
	C279.146301,132.215973 256.691711,127.756187 241.007233,138.465866 
	C223.617325,150.340042 223.356796,173.825409 240.479172,186.067017 
	C254.886093,196.367218 274.714691,193.767136 286.786285,179.512909 
M364.906708,189.623749 
	C366.701385,190.569687 368.496094,191.515625 371.220795,192.951736 
	C371.220795,183.574753 371.178223,175.443710 371.235596,167.313385 
	C371.274445,161.806076 374.359467,158.423767 379.159943,158.426849 
	C384.018494,158.429962 387.009247,161.740829 387.069946,167.297684 
	C387.126343,172.462143 386.930511,177.634720 387.152252,182.790558 
	C387.408478,188.749146 390.096222,191.423538 395.814301,191.639755 
	C395.814301,182.329361 396.020752,173.018555 395.675537,163.728256 
	C395.584198,161.269226 394.221527,158.558563 392.708710,156.503769 
	C386.620453,148.234283 377.044891,147.598877 366.599335,154.530060 
	C365.581421,153.758560 364.590363,152.888916 363.489929,152.191940 
	C354.099213,146.244217 339.660736,151.347565 338.377289,161.932236 
	C337.189941,171.724335 338.124329,181.773712 338.124329,191.725647 
	C343.651550,191.149506 346.072693,188.855148 346.269165,183.546539 
	C346.478577,177.889175 346.218048,172.215363 346.381805,166.555069 
	C346.520294,161.769974 349.715515,158.584305 354.131866,158.429153 
	C358.635376,158.270920 362.023285,161.123917 362.336456,166.002243 
	C362.677399,171.312820 362.310211,176.667465 362.609436,181.982758 
	C362.743591,184.366837 363.748444,186.701920 364.906708,189.623749 
M408.884430,183.502960 
	C408.936035,178.839355 408.669006,174.145172 409.112946,169.519211 
	C409.803040,162.327560 416.811951,157.586533 424.906342,158.409988 
	C432.207306,159.152725 437.488525,164.868164 437.157623,171.668610 
	C436.838531,178.226624 430.895294,183.457458 423.310211,183.095734 
	C419.376251,182.908142 415.501038,181.487823 411.596222,180.623703 
	C410.554016,186.072983 412.178955,189.651215 416.621307,191.276108 
	C427.534271,195.267792 441.428772,188.425171 445.063446,177.269150 
	C448.808807,165.773315 441.658386,153.421265 429.444336,150.287735 
	C415.715698,146.765625 401.641571,154.790710 400.537689,168.081757 
	C399.470215,180.934235 400.306458,193.944839 400.306458,206.897888 
	C405.797394,206.491257 408.643311,203.766113 408.839966,198.493790 
	C409.013733,193.834930 408.881653,189.164688 408.884430,183.502960 
M314.294098,149.760696 
	C312.135620,149.822586 309.955292,149.709274 307.822327,149.975525 
	C296.206360,151.425537 287.354004,161.914978 288.556854,172.689926 
	C289.870850,184.460129 299.940887,192.523666 312.852661,192.144653 
	C325.347595,191.777878 334.814178,183.435150 335.620209,172.079987 
	C336.408203,160.979111 327.850128,151.664658 314.294098,149.760696 
M457.210419,181.157990 
	C457.480469,188.912643 459.863251,191.797699 466.292358,191.459290 
	C466.292358,175.097229 466.292358,158.699509 466.292358,141.939850 
	C472.312958,141.939850 477.794495,142.097092 483.263031,141.897583 
	C489.266754,141.678543 491.675568,139.342484 492.364014,133.408600 
	C471.979126,133.408600 451.628845,133.408600 431.253479,133.408600 
	C431.721497,139.265427 434.238525,141.696899 440.288300,141.902588 
	C445.734863,142.087799 451.192719,141.941681 457.210632,141.941681 
	C457.210632,155.024826 457.210632,167.627457 457.210419,181.157990 
M501.212341,135.335434 
	C499.398529,134.538300 497.584717,133.741165 495.177734,132.683334 
	C495.177734,150.358246 495.037567,166.970184 495.258514,183.577316 
	C495.329956,188.945618 498.533386,191.551544 504.003723,191.634842 
	C504.003723,174.852066 504.071777,158.071426 503.905212,141.293106 
	C503.887299,139.487411 502.505920,137.695267 501.212341,135.335434 
z"/>
<path fill="#FEFEFE" opacity="1.000000" stroke="none" 
	d="
M117.298195,447.532532 
	C118.793037,447.457977 120.287888,447.318176 121.782730,447.318115 
	C308.247681,447.308533 494.712646,447.309174 681.177612,447.311737 
	C682.010437,447.311768 682.843201,447.346924 684.077515,447.801819 
	C668.583313,497.033783 641.793884,538.876831 604.544495,574.220947 
	C602.927734,573.259766 601.609192,572.557251 600.374451,571.729553 
	C580.242798,558.234619 559.005859,546.751831 536.384705,538.090454 
	C503.965790,525.677673 471.135712,514.754761 435.680695,515.980164 
	C434.909760,516.006775 434.127380,515.701782 432.968719,515.477539 
	C432.968719,509.646942 433.076935,504.008545 432.949646,498.375427 
	C432.440094,475.823181 412.212280,460.103180 391.374939,466.005951 
	C377.471313,469.944519 368.220764,482.497498 367.967346,497.901520 
	C367.869812,503.829895 367.951477,509.761200 367.951477,515.148010 
	C304.727386,517.628662 249.415756,540.560852 197.343170,574.049866 
	C159.957779,538.607910 133.220856,496.511017 117.298195,447.532532 
z"/>
<path fill="#FEFEFE" opacity="1.000000" stroke="none" 
	d="
M82.046448,229.927063 
	C89.231697,209.176163 99.581039,189.819305 111.577484,171.360687 
	C149.053833,113.696785 199.150024,70.592247 261.962372,42.589031 
	C312.428650,20.089981 365.410522,10.449752 420.602661,13.811349 
	C504.898895,18.945597 577.669800,50.990227 638.895691,108.905083 
	C674.830017,142.896118 701.923279,183.148407 720.444458,229.503479 
	C708.306641,229.913254 696.093506,229.945984 683.318848,229.579910 
	C674.493652,214.368423 667.286682,198.836655 657.781860,184.868546 
	C618.187866,126.682281 565.093079,85.757217 498.075256,63.605564 
	C430.031952,41.114964 361.856903,41.896374 294.834076,66.768105 
	C214.079590,96.735565 155.568375,151.684113 119.055855,229.843811 
	C106.887215,229.889923 94.718575,229.936035 82.046448,229.927063 
z"/>
<path fill="#6D777F" opacity="1.000000" stroke="none" 
	d="
M116.903809,447.443237 
	C133.220856,496.511017 159.957779,538.607910 197.343170,574.049866 
	C249.415756,540.560852 304.727386,517.628662 367.951477,515.148010 
	C367.951477,509.761200 367.869812,503.829895 367.967346,497.901520 
	C368.220764,482.497498 377.471313,469.944519 391.374939,466.005951 
	C412.212280,460.103180 432.440094,475.823181 432.949646,498.375427 
	C433.076935,504.008545 432.968719,509.646942 432.968719,515.477539 
	C434.127380,515.701782 434.909760,516.006775 435.680695,515.980164 
	C471.135712,514.754761 503.965790,525.677673 536.384705,538.090454 
	C559.005859,546.751831 580.242798,558.234619 600.374451,571.729553 
	C601.609192,572.557251 602.927734,573.259766 604.544495,574.220947 
	C641.793884,538.876831 668.583313,497.033783 684.587280,447.884277 
	C688.479553,447.480957 692.263611,447.431335 696.433289,447.807190 
	C680.862915,499.600952 653.094055,543.735474 614.392761,581.197021 
	C621.826904,587.094421 628.597778,592.465698 635.465576,598.007996 
	C635.734009,598.391113 635.952087,598.530457 636.366089,598.811829 
	C636.808838,599.211121 637.102051,599.395630 637.602966,599.825562 
	C639.656006,601.379822 641.284546,604.725220 643.932251,600.551514 
	C644.476257,599.964844 644.786011,599.524475 645.341370,599.020142 
	C645.762878,598.677917 645.938843,598.399719 646.415039,597.975342 
	C664.006836,580.362854 679.215271,561.226868 692.332031,540.455017 
	C710.583069,511.552338 724.483704,480.717468 733.078430,447.567108 
	C737.174683,447.606384 741.270935,447.645660 745.729248,447.897400 
	C740.928223,463.019012 736.188477,478.093201 730.461792,492.782654 
	C726.225220,503.649841 720.425903,513.897278 715.829163,524.637512 
	C710.720703,536.573242 703.566956,547.273499 696.397339,557.934265 
	C691.736206,564.864929 686.073120,571.124268 680.822754,577.655212 
	C676.134277,583.487122 671.630676,589.490906 666.622314,595.036743 
	C659.912231,602.466919 652.887024,609.621399 645.811707,616.709106 
	C642.393860,620.132874 637.971680,618.707397 633.724182,614.454041 
	C628.138245,608.860352 622.032043,603.774170 616.012451,598.630310 
	C612.698425,595.798462 609.103333,593.295715 605.758423,590.738953 
	C546.371948,640.143188 478.698151,667.163513 400.711548,667.052429 
	C323.023132,666.941772 255.561493,640.085999 195.719910,590.290222 
	C185.337479,599.252686 174.557266,608.593445 163.728165,617.877136 
	C161.542786,619.750671 159.327209,620.311401 156.995911,617.750732 
	C151.414612,611.620361 145.663773,605.644775 140.044128,599.548767 
	C132.217178,591.058472 124.253563,582.681702 116.738365,573.921814 
	C113.194801,569.791321 110.550591,564.887634 107.513657,560.324463 
	C103.362427,554.086975 98.895599,548.030090 95.161797,541.551331 
	C89.955887,532.518066 85.106117,523.263794 80.473747,513.920776 
	C76.638939,506.186279 73.226715,498.234344 69.841988,490.287292 
	C67.488457,484.761414 65.281609,479.152252 63.398502,473.451721 
	C60.714886,465.327728 58.388008,457.085876 55.877537,448.507385 
	C59.909142,447.873566 63.971947,447.626770 68.539085,447.819092 
	C85.225922,508.168335 116.130135,559.368774 160.190842,603.057129 
	C169.370361,595.636902 178.234833,588.471375 187.443466,581.027588 
	C148.682526,543.259033 120.797783,499.145569 105.107414,447.561279 
	C108.908081,447.492157 112.708748,447.423035 116.903809,447.443237 
M432.591431,653.095703 
	C494.036316,646.595398 547.846924,622.599548 595.065186,582.795288 
	C566.857483,559.735962 488.943604,529.165588 457.107971,528.617432 
	C457.107971,530.432251 457.107971,532.242432 457.107971,534.052673 
	C457.108124,552.049194 457.118408,570.045776 457.105652,588.042297 
	C457.091980,607.358154 446.038910,618.386353 426.672211,618.396362 
	C401.343750,618.409546 376.015289,618.399353 350.686829,618.399170 
	C348.898621,618.399170 347.110443,618.399170 344.651062,618.399170 
	C344.651062,588.047729 344.651062,558.205811 344.651062,528.060059 
	C294.439331,536.297913 248.888626,554.294495 206.785461,582.272522 
	C208.238647,583.595947 209.286453,584.626282 210.411514,585.563843 
	C245.391052,614.714417 284.885345,635.044800 329.098450,646.040588 
	C362.860016,654.437134 397.055634,657.089111 432.591431,653.095703 
M445.628143,586.186768 
	C445.628143,566.924988 445.628143,547.663269 445.628143,528.384766 
	C415.474670,528.384766 385.955658,528.384766 356.482239,528.384766 
	C356.482239,554.653320 356.482239,580.538452 356.482239,606.916138 
	C358.605743,606.916138 360.399353,606.916138 362.192963,606.916138 
	C383.168823,606.916138 404.144653,606.924500 425.120514,606.913330 
	C439.227966,606.905762 445.025604,601.294006 445.628143,586.186768 
M388.234650,480.578888 
	C376.382080,490.183014 380.312927,503.317169 379.583710,515.599243 
	C393.928131,515.599243 407.448334,515.599243 421.065277,515.599243 
	C421.065277,509.046387 421.466888,502.881714 420.988068,496.786194 
	C419.684448,480.191040 403.332611,471.838135 388.234650,480.578888 
z"/>
<path fill="#6E777F" opacity="1.000000" stroke="none" 
	d="
M119.512650,229.903381 
	C155.568375,151.684113 214.079590,96.735565 294.834076,66.768105 
	C361.856903,41.896374 430.031952,41.114964 498.075256,63.605564 
	C565.093079,85.757217 618.187866,126.682281 657.781860,184.868546 
	C667.286682,198.836655 674.493652,214.368423 682.851013,229.511932 
	C678.905579,229.884216 674.866394,229.925659 670.361023,229.911240 
	C657.741211,203.668655 641.774475,179.988205 622.467590,158.593658 
	C586.298401,118.513680 542.605225,89.739792 491.061584,73.624611 
	C424.352966,52.768055 357.962067,54.502682 292.849304,80.176605 
	C220.097443,108.862625 166.906555,159.143036 132.234344,229.526077 
	C128.093887,229.890701 124.031662,229.926804 119.512650,229.903381 
z"/>
<path fill="#FEFDFD" opacity="1.000000" stroke="none" 
	d="
M104.633148,447.465210 
	C120.797783,499.145569 148.682526,543.259033 187.443466,581.027588 
	C178.234833,588.471375 169.370361,595.636902 160.190842,603.057129 
	C116.130135,559.368774 85.225922,508.168335 68.982521,447.910583 
	C80.667374,447.498291 92.413124,447.433716 104.633148,447.465210 
z"/>
<path fill="#FEFDFD" opacity="1.000000" stroke="none" 
	d="
M635.368713,597.836914 
	C628.597778,592.465698 621.826904,587.094421 614.392761,581.197021 
	C653.094055,543.735474 680.862915,499.600952 696.881226,447.900085 
	C708.675720,447.495178 720.407898,447.422852 732.609253,447.458801 
	C724.483704,480.717468 710.583069,511.552338 692.332031,540.455017 
	C679.215271,561.226868 664.006836,580.362854 646.395996,597.958496 
	C646.076538,598.087769 646.055420,598.041321 645.902710,597.657837 
	C646.272827,593.879211 645.273254,591.143188 641.539368,591.006165 
	C638.149536,590.881775 636.131531,592.884827 636.217041,596.904724 
	C635.741760,597.418945 635.555237,597.627930 635.368713,597.836914 
z"/>
<path fill="#FEFBFB" opacity="1.000000" stroke="none" 
	d="
M156.524872,307.123352 
	C151.387192,307.763397 146.236404,307.442139 142.094574,309.332062 
	C134.221909,312.924316 134.102341,323.310822 141.853607,327.187012 
	C147.733307,330.127228 154.335190,331.625641 160.620453,333.751648 
	C165.339630,335.347961 170.232925,336.550568 174.756744,338.579468 
	C185.856430,343.557526 190.979919,352.220306 190.086685,364.522095 
	C189.326813,374.986786 182.468079,384.326965 171.863129,387.942017 
	C156.118271,393.309143 140.999863,390.932556 126.581352,383.299194 
	C122.657204,381.221710 119.156662,378.344025 115.021317,375.534424 
	C118.664856,371.176849 121.940895,367.258820 125.074265,363.511383 
	C130.446091,366.596039 135.279068,370.477753 140.789886,372.240967 
	C146.954880,374.213501 153.715179,374.629730 160.255737,374.972107 
	C162.819672,375.106354 165.790115,373.652710 168.056732,372.143311 
	C175.119781,367.439819 174.878494,357.990479 167.269714,354.277832 
	C161.508255,351.466644 155.073853,350.025970 148.922882,348.024628 
	C144.657944,346.636902 140.277985,345.560028 136.102905,343.946960 
	C125.464737,339.836914 119.219673,332.265381 119.090645,320.556519 
	C118.960640,308.759521 124.407852,300.116913 134.997269,294.998047 
	C150.082855,287.705841 174.618576,291.968018 187.054642,304.006195 
	C184.132339,308.111115 181.181549,312.256042 178.852997,315.526947 
	C171.075500,312.553772 164.021423,309.857147 156.524872,307.123352 
z"/>
<path fill="#FEFBFB" opacity="1.000000" stroke="none" 
	d="
M206.922150,329.974670 
	C217.499817,315.958893 234.165497,311.319000 249.816559,317.785156 
	C264.060120,323.669739 272.348785,340.533661 269.831207,358.998718 
	C252.447372,358.998718 235.004150,358.998718 217.070480,358.998718 
	C218.282150,366.718353 221.830170,372.253876 228.604324,375.165314 
	C239.422012,379.814636 248.721069,376.396667 257.303589,368.526215 
	C260.595276,371.421265 263.774597,374.217499 266.936249,376.998199 
	C256.353760,391.895630 231.994904,395.600616 216.055634,384.944092 
	C198.870743,373.454773 194.697540,349.005219 206.922150,329.974670 
M220.084595,337.765350 
	C218.923309,340.783600 217.762039,343.801819 216.469055,347.162415 
	C229.292816,347.162415 241.233810,347.162415 253.208954,347.162415 
	C252.361130,337.939331 247.784485,331.589813 240.409058,329.584503 
	C232.037323,327.308319 225.467590,330.265228 220.084595,337.765350 
z"/>
<path fill="#FEFBFB" opacity="1.000000" stroke="none" 
	d="
M615.012024,352.949463 
	C618.849670,341.903168 622.673096,331.265503 626.226196,320.538300 
	C627.145264,317.763702 628.273560,316.415558 631.404236,316.620148 
	C635.699219,316.900848 640.026245,316.690369 644.897522,316.690369 
	C644.395935,318.433533 644.113403,319.797821 643.618225,321.079956 
	C634.455933,344.804565 625.269165,368.519684 616.082214,392.234711 
	C615.782166,393.009247 615.430847,393.764252 615.093872,394.524078 
	C607.271179,412.161591 592.446960,416.991302 575.011719,407.111969 
	C576.813782,403.176453 578.639771,399.188660 580.438477,395.260529 
	C583.680054,396.024414 586.526550,397.053162 589.441772,397.313324 
	C597.335083,398.017639 601.814575,391.804260 598.803040,384.571014 
	C590.113037,363.698639 581.399231,342.836151 572.701355,321.967072 
	C572.077454,320.470337 571.506226,318.951660 570.622375,316.713562 
	C576.423706,316.713562 581.688599,316.488251 586.905029,316.890594 
	C588.042847,316.978363 589.410583,319.151581 589.989929,320.631531 
	C595.746277,335.337524 601.355713,350.101044 607.019409,364.843445 
	C607.475342,366.030090 608.025818,367.180359 609.003113,369.432068 
	C611.205139,363.414215 613.051086,358.369507 615.012024,352.949463 
z"/>
<path fill="#FFFBFB" opacity="1.000000" stroke="none" 
	d="
M355.517242,362.646149 
	C355.516998,347.223846 355.516998,332.266144 355.516998,317.002075 
	C361.179291,317.002075 366.408966,317.002075 372.237976,317.002075 
	C372.237976,325.695648 372.196106,334.297272 372.252350,342.898285 
	C372.291473,348.885986 372.101624,354.907013 372.661407,360.852203 
	C373.574341,370.547760 379.302551,375.644440 388.271606,375.448059 
	C397.010010,375.256714 403.562042,369.115936 403.866791,359.879425 
	C404.267395,347.738739 404.043701,335.577362 404.086090,323.424896 
	C404.092957,321.451752 404.087067,319.478546 404.087067,317.099915 
	C409.758575,317.099915 415.110657,317.099915 420.716797,317.099915 
	C420.716797,340.985291 420.716797,364.729828 420.716797,388.923950 
	C415.387817,388.923950 410.037598,388.923950 404.298401,388.923950 
	C404.298401,386.116669 404.298401,383.348572 404.298401,379.887909 
	C403.105286,380.585236 402.376801,380.826141 401.904205,381.314636 
	C392.924438,390.596069 381.852875,393.509186 370.646545,388.905823 
	C359.232788,384.217224 355.728363,374.547150 355.517242,362.646149 
z"/>
<path fill="#FEFAFA" opacity="1.000000" stroke="none" 
	d="
M279.018677,353.959442 
	C279.107269,336.186127 289.045013,322.067322 304.758972,316.925018 
	C319.881927,311.976135 337.077362,316.487915 345.777771,327.904266 
	C342.564270,331.376617 339.310425,334.892548 335.598633,338.903320 
	C329.248169,332.502594 321.885559,328.002350 312.884583,330.346588 
	C308.665680,331.445404 304.258606,334.250702 301.363373,337.538757 
	C293.293549,346.703552 294.118988,361.225983 302.418121,369.947388 
	C310.896271,378.856934 321.419250,378.217377 336.650726,367.641846 
	C339.799347,370.642914 343.011688,373.704712 346.171387,376.716370 
	C338.936920,388.326233 321.679169,393.842041 306.420868,389.667511 
	C290.254791,385.244629 279.552765,371.480072 279.018677,353.959442 
z"/>
<path fill="#FFFCFC" opacity="1.000000" stroke="none" 
	d="
M552.208740,375.500854 
	C556.029053,374.961090 559.417480,374.332458 563.144958,373.640930 
	C563.144958,377.249664 563.370789,380.919220 563.023926,384.533844 
	C562.900696,385.818512 561.643921,387.591980 560.464539,388.080963 
	C552.807373,391.255585 544.885132,391.801819 537.154419,388.565918 
	C529.755371,385.468842 527.323303,378.884430 527.133240,371.520599 
	C526.836731,360.031891 526.974670,348.531921 526.930969,337.036743 
	C526.924133,335.235443 526.929993,333.434052 526.929993,331.160889 
	C523.827881,331.160889 521.086975,331.160889 518.044861,331.160889 
	C518.044861,326.287201 518.044861,321.876709 518.044861,316.909119 
	C520.705505,316.786926 523.435913,316.661530 526.682617,316.512451 
	C526.682617,309.938171 526.682617,303.532013 526.682617,296.726196 
	C532.566650,296.726196 537.936890,296.726196 543.811157,296.726196 
	C543.811157,303.194977 543.811157,309.615509 543.811157,316.623840 
	C550.529175,316.623840 556.769287,316.623840 563.239624,316.623840 
	C563.239624,321.656982 563.239624,326.091705 563.239624,330.876587 
	C556.942383,330.876587 550.835815,330.876587 543.947754,330.876587 
	C543.947754,334.785187 543.947571,338.363495 543.947815,341.941772 
	C543.948303,350.105743 543.891968,358.270294 543.968628,366.433533 
	C544.023560,372.286438 545.788879,374.219452 552.208740,375.500854 
z"/>
<path fill="#FEF8F8" opacity="1.000000" stroke="none" 
	d="
M694.302185,330.031250 
	C695.523254,331.387939 696.716187,332.936981 697.957397,332.976624 
	C705.262329,333.209839 712.578491,333.091370 720.310547,333.091370 
	C720.310547,338.194916 720.310547,343.063446 720.310547,348.498535 
	C711.864075,348.498535 703.462524,348.498535 694.480347,348.498535 
	C694.480347,357.414490 694.480347,365.796143 694.480347,374.496277 
	C688.990417,374.496277 684.085449,374.496277 678.453613,374.496277 
	C678.453613,366.110382 678.453613,357.592987 678.453613,348.588074 
	C669.339172,348.588074 660.930908,348.588074 652.248657,348.588074 
	C652.248657,343.333954 652.248657,338.586121 652.248657,333.358337 
	C660.685425,333.358337 669.091064,333.358337 678.019409,333.358337 
	C678.019409,324.528595 678.019409,316.145874 678.019409,307.378723 
	C683.585876,307.378723 688.636902,307.378723 694.296387,307.378723 
	C694.296387,314.666870 694.296387,322.096558 694.302185,330.031250 
z"/>
<path fill="#FEFBFB" opacity="1.000000" stroke="none" 
	d="
M464.045715,319.953369 
	C468.995361,316.549561 474.059906,314.830841 480.135132,315.308075 
	C480.135132,321.053833 480.135132,326.635773 480.135132,332.535400 
	C479.713501,332.661255 479.137665,332.932495 478.539490,332.997131 
	C463.822571,334.587189 456.115143,342.385986 455.048737,357.177399 
	C454.666290,362.481934 454.854736,367.829132 454.823853,373.157074 
	C454.794067,378.296661 454.817413,383.436523 454.817413,388.971924 
	C449.152252,388.971924 443.799957,388.971924 438.194946,388.971924 
	C438.194946,365.072296 438.194946,341.314270 438.194946,317.122925 
	C443.507324,317.122925 448.872528,317.122925 454.669159,317.122925 
	C454.669159,321.379242 454.669159,325.650055 454.669159,330.367279 
	C457.973663,326.664459 460.866943,323.422424 464.045715,319.953369 
z"/>
<path fill="#FEFBFB" opacity="1.000000" stroke="none" 
	d="
M489.994263,352.000000 
	C489.994263,340.189148 489.994263,328.878265 489.994263,317.129089 
	C495.609344,317.129089 500.989685,317.129089 506.729645,317.129089 
	C506.729645,340.912567 506.729645,364.791473 506.729645,389.023560 
	C501.299164,389.023560 495.922791,389.023560 489.994263,389.023560 
	C489.994263,376.723328 489.994263,364.611664 489.994263,352.000000 
z"/>
<path fill="#FDF0F0" opacity="1.000000" stroke="none" 
	d="
M499.880127,289.383179 
	C502.485565,289.383209 504.622131,289.383209 507.146210,289.383209 
	C507.146210,294.921112 507.146210,300.100922 507.146210,305.503174 
	C501.273499,305.503174 495.690094,305.503174 489.709900,305.503174 
	C489.709900,300.296936 489.709900,295.245758 489.709900,289.383179 
	C492.923370,289.383179 496.167328,289.383179 499.880127,289.383179 
z"/>
<path fill="#E22626" opacity="1.000000" stroke="none" 
	d="
M485.669830,682.300171 
	C494.847046,687.900940 499.633331,702.080139 494.580017,711.389099 
	C491.457306,717.141724 486.374329,721.877930 479.143951,723.000732 
	C474.471344,723.726318 469.700226,724.176758 465.194214,725.501831 
	C461.643524,726.546021 461.223633,724.714539 460.717712,722.288757 
	C458.347687,710.924377 456.119019,699.527649 453.523376,688.215088 
	C452.764435,684.907349 452.928345,683.343628 456.757843,682.877197 
	C464.252716,681.964355 471.671143,680.384644 479.176178,679.620667 
	C481.134277,679.421387 483.294708,681.209595 485.669830,682.300171 
M466.983429,703.563599 
	C467.940186,707.666077 468.896942,711.768555 469.852234,715.864746 
	C472.239777,715.111877 474.656281,713.555481 476.856598,713.817139 
	C481.837036,714.409424 484.439484,710.343201 485.537231,707.790955 
	C487.266754,703.769775 487.894379,698.987732 484.368286,694.198975 
	C480.337891,688.725525 475.357788,688.960144 469.944672,689.007996 
	C464.133453,689.059387 463.623352,689.701416 464.951019,695.171631 
	C465.564911,697.700745 466.247711,700.213135 466.983429,703.563599 
z"/>
<path fill="#E22626" opacity="1.000000" stroke="none" 
	d="
M277.427643,663.765991 
	C282.422302,666.266663 287.077423,668.615845 291.759857,670.909180 
	C296.821289,673.388184 298.764648,677.663879 297.904724,682.916809 
	C297.129578,687.651733 296.426605,692.776611 290.395233,694.302612 
	C288.379333,694.812683 286.488708,695.818054 283.777588,696.902222 
	C285.260712,702.165283 286.825104,707.716675 288.745087,714.530029 
	C285.006714,713.598694 281.734924,712.783630 278.790314,712.050049 
	C277.131317,706.380371 276.061340,700.860229 273.814972,695.869507 
	C272.764618,693.535950 269.440399,692.225891 266.968353,690.314026 
	C265.119507,695.751465 263.569824,700.309082 261.936401,705.112915 
	C258.987030,704.133911 256.588318,703.337646 253.071289,702.170227 
	C258.119293,688.286865 263.086090,674.626770 268.023407,661.047913 
	C271.448486,662.007141 274.274323,662.798523 277.427643,663.765991 
M280.917267,674.432800 
	C278.409698,673.580566 275.902130,672.728333 274.104218,672.117310 
	C272.526337,676.301392 271.225067,679.752075 269.845764,683.409729 
	C273.651886,684.968384 277.215363,686.522705 280.849762,687.888306 
	C284.229919,689.158447 285.955597,686.501770 287.629730,684.448364 
	C288.420013,683.479126 289.049011,681.108887 288.518951,680.557129 
	C286.459930,678.413940 283.906494,676.745667 280.917267,674.432800 
z"/>
<path fill="#E22626" opacity="1.000000" stroke="none" 
	d="
M592.852905,625.680786 
	C596.168518,624.067383 596.610352,626.623108 596.867920,628.354248 
	C597.107971,629.967712 596.980896,632.511108 595.972839,633.282166 
	C591.779785,636.489746 587.125305,639.084656 582.770996,642.093750 
	C579.036682,644.674194 579.527405,648.652771 583.799438,650.243408 
	C584.891541,650.650024 586.613098,650.348633 587.658325,649.724426 
	C591.627869,647.353394 595.343933,644.547546 599.371094,642.290344 
	C600.464966,641.677246 603.292664,641.938416 603.635620,642.632690 
	C604.560425,644.504944 606.935364,646.837341 603.950928,648.975098 
	C600.728699,651.283264 597.480042,653.567200 594.125122,655.674255 
	C588.999878,658.893311 588.815247,660.443176 593.617493,666.846008 
	C598.481873,663.647400 603.773926,660.854858 608.195923,657.050964 
	C612.007690,653.771973 614.211243,654.953796 616.568909,658.174622 
	C617.223694,659.069214 617.537903,660.213135 618.006836,661.239197 
	C610.391418,666.172729 602.907898,671.025085 595.415405,675.863586 
	C595.008362,676.126404 594.475159,676.202698 594.087036,676.484619 
	C589.585876,679.755432 588.538330,679.241394 586.904480,673.579834 
	C586.435486,671.954468 585.076477,670.557373 584.017944,669.135803 
	C580.345581,664.203918 576.349243,659.486328 573.016602,654.337402 
	C570.599854,650.603638 569.038391,646.316284 566.953003,641.979248 
	C575.454956,636.659546 584.018066,631.301514 592.852905,625.680786 
z"/>
<path fill="#E22626" opacity="1.000000" stroke="none" 
	d="
M251.785339,675.726074 
	C250.111572,680.268738 247.980728,681.440063 244.180283,678.109802 
	C242.374283,676.527222 240.003738,675.571960 237.847687,674.408997 
	C231.631744,671.056274 229.768021,671.871765 227.141266,678.912170 
	C231.174301,681.188965 235.146729,683.530212 239.217880,685.685059 
	C241.045074,686.652100 243.013000,687.494141 245.017746,687.953003 
	C248.279617,688.699707 248.639221,689.964478 246.846573,692.750610 
	C243.358429,698.171875 243.664429,697.943848 238.130219,694.771606 
	C230.548920,690.425964 222.664490,686.609070 214.597076,682.402405 
	C221.146667,669.489319 227.500717,656.961853 234.355133,643.447815 
	C243.887527,648.359131 253.715363,653.422729 263.608765,658.520020 
	C262.531433,660.915649 261.420044,663.386902 260.088745,666.347229 
	C253.124573,662.769470 246.253662,659.239685 239.302841,655.668823 
	C237.951080,657.945007 236.398544,660.559326 234.749329,663.336426 
	C240.758682,666.483337 246.418732,669.447266 252.789734,672.783569 
	C252.762207,672.880310 252.396179,674.167053 251.785339,675.726074 
z"/>
<path fill="#E22626" opacity="1.000000" stroke="none" 
	d="
M551.544067,650.216919 
	C556.503540,649.817932 561.084229,649.570312 566.309082,649.287842 
	C565.621582,653.236450 565.179993,655.772705 564.667480,658.716187 
	C555.186218,657.488892 545.975769,657.464966 545.061401,670.412903 
	C544.549744,677.658630 549.653870,684.471375 556.035583,685.936951 
	C561.771912,687.254395 568.579346,682.443848 572.015869,674.427551 
	C574.550354,675.094727 577.137573,675.775757 579.718323,676.455078 
	C579.606812,683.713867 570.159485,691.801758 561.737366,694.227295 
	C547.622803,698.292297 532.448242,682.954163 535.547180,667.200500 
	C537.477356,657.388367 543.811523,653.956482 551.544067,650.216919 
z"/>
<path fill="#E22626" opacity="1.000000" stroke="none" 
	d="
M223.714859,637.413330 
	C225.088547,640.867310 226.269379,643.984070 227.591522,647.473877 
	C224.171417,648.168152 221.502869,648.709839 218.924911,649.233215 
	C214.068985,637.614136 209.968796,635.109680 200.251114,638.039307 
	C193.637970,640.033020 189.954010,646.987061 191.072540,653.644958 
	C192.270584,660.776184 198.409698,663.906555 209.566269,663.153076 
	C210.060760,665.906921 210.560013,668.687317 211.131577,671.870422 
	C203.901825,671.663025 197.149963,673.609070 191.039505,668.600830 
	C179.565506,659.196594 178.707367,643.398499 189.346176,633.325989 
	C196.609009,626.449707 209.256699,625.978210 217.586746,632.087158 
	C219.666306,633.612244 221.548889,635.405945 223.714859,637.413330 
z"/>
<path fill="#E22626" opacity="1.000000" stroke="none" 
	d="
M321.393066,678.715332 
	C325.192780,679.453369 328.739349,679.628479 332.035797,680.628357 
	C338.851776,682.695557 338.796997,682.876160 336.527191,689.937744 
	C333.269104,689.626404 329.899841,689.109375 326.527740,689.089844 
	C325.373505,689.083130 323.443573,690.100098 323.173523,691.028931 
	C320.629578,699.778320 318.321442,708.598083 316.083344,717.432495 
	C315.794159,718.573914 316.289734,719.914124 316.420624,721.151062 
	C307.734406,721.787537 305.860657,719.657654 307.941681,711.869995 
	C310.252930,703.220886 312.517120,694.559143 314.912506,685.483521 
	C310.725220,684.476746 306.530426,683.468140 301.668640,682.299194 
	C302.504456,679.562134 303.331573,676.853699 304.265289,673.796143 
	C310.131927,675.451599 315.579315,676.988770 321.393066,678.715332 
z"/>
<path fill="#E22626" opacity="1.000000" stroke="none" 
	d="
M350.518921,700.146851 
	C349.052490,709.128235 347.367859,717.756042 345.540558,727.114624 
	C342.821075,726.663879 340.056061,726.205627 336.937714,725.688782 
	C338.973969,711.341187 340.959717,697.349426 343.036438,682.716614 
	C346.225433,683.282593 348.878296,683.753418 351.905853,684.290771 
	C351.359772,689.564697 350.830231,694.678955 350.518921,700.146851 
z"/>
<path fill="#E22626" opacity="1.000000" stroke="none" 
	d="
M517.905640,685.010010 
	C525.039062,687.280151 525.519958,689.269592 521.183105,697.255127 
	C519.501831,697.169312 517.735962,697.219299 516.020081,696.950256 
	C514.448975,696.703918 512.931946,696.112671 511.424438,695.682922 
	C511.527405,686.383179 511.988495,685.581116 517.905640,685.010010 
z"/>
<path fill="#E32E2E" opacity="1.000000" stroke="none" 
	d="
M567.033447,188.024094 
	C567.409546,189.065674 567.785706,190.107269 568.184998,191.212982 
	C561.627991,192.053833 558.446106,190.780609 556.293091,184.745453 
	C554.025696,178.389786 550.433716,176.008728 543.741821,176.876984 
	C538.825195,177.514893 533.723206,177.374512 528.770142,176.895493 
	C523.986816,176.432861 521.712585,178.308228 519.963379,182.598526 
	C516.626953,190.781876 514.197632,192.193863 506.365784,191.829819 
	C506.700531,190.720963 506.896912,189.639740 507.338989,188.670609 
	C514.797363,172.320343 522.299194,155.989883 529.757935,139.639801 
	C531.262512,136.341690 532.936707,133.276047 537.142944,133.162277 
	C541.619690,133.041183 543.439026,136.222458 545.023315,139.681259 
	C551.881836,154.654953 558.758911,169.620102 565.701416,185.197784 
	C566.193481,186.546173 566.613464,187.285141 567.033447,188.024094 
M537.510925,168.394852 
	C540.959167,168.394852 544.407471,168.394852 548.677795,168.394852 
	C544.886780,160.046692 541.427002,152.427933 537.607910,144.018066 
	C534.163757,151.547394 531.075928,158.280228 528.009338,165.022736 
	C527.616638,165.886276 527.334412,166.800095 526.737244,168.394867 
	C530.346741,168.394867 533.440063,168.394867 537.510925,168.394852 
z"/>
<path fill="#E32D2D" opacity="1.000000" stroke="none" 
	d="
M286.572662,179.781891 
	C274.714691,193.767136 254.886093,196.367218 240.479172,186.067017 
	C223.356796,173.825409 223.617325,150.340042 241.007233,138.465866 
	C256.691711,127.756187 279.146301,132.215973 288.367584,147.883545 
	C288.765472,148.559570 289.033752,149.311874 289.440155,150.198242 
	C284.874084,152.905823 281.370209,151.505341 278.037048,148.421249 
	C271.026550,141.934616 262.820404,139.800735 253.546494,142.078140 
	C242.963028,144.677139 235.304855,154.721710 236.517441,164.269730 
	C237.929031,175.384888 248.254807,184.393341 260.098877,183.487488 
	C265.454834,183.077850 270.584412,179.999313 275.873505,178.309296 
	C278.763916,177.385712 281.750366,176.647598 284.749054,176.283569 
	C285.289490,176.217972 286.100311,178.379578 286.572662,179.781891 
z"/>
<path fill="#E32C2C" opacity="1.000000" stroke="none" 
	d="
M364.632446,189.341492 
	C363.748444,186.701920 362.743591,184.366837 362.609436,181.982758 
	C362.310211,176.667465 362.677399,171.312820 362.336456,166.002243 
	C362.023285,161.123917 358.635376,158.270920 354.131866,158.429153 
	C349.715515,158.584305 346.520294,161.769974 346.381805,166.555069 
	C346.218048,172.215363 346.478577,177.889175 346.269165,183.546539 
	C346.072693,188.855148 343.651550,191.149506 338.124329,191.725647 
	C338.124329,181.773712 337.189941,171.724335 338.377289,161.932236 
	C339.660736,151.347565 354.099213,146.244217 363.489929,152.191940 
	C364.590363,152.888916 365.581421,153.758560 366.599335,154.530060 
	C377.044891,147.598877 386.620453,148.234283 392.708710,156.503769 
	C394.221527,158.558563 395.584198,161.269226 395.675537,163.728256 
	C396.020752,173.018555 395.814301,182.329361 395.814301,191.639755 
	C390.096222,191.423538 387.408478,188.749146 387.152252,182.790558 
	C386.930511,177.634720 387.126343,172.462143 387.069946,167.297684 
	C387.009247,161.740829 384.018494,158.429962 379.159943,158.426849 
	C374.359467,158.423767 371.274445,161.806076 371.235596,167.313385 
	C371.178223,175.443710 371.220795,183.574753 371.220795,192.951736 
	C368.496094,191.515625 366.701385,190.569687 364.632446,189.341492 
z"/>
<path fill="#E32D2D" opacity="1.000000" stroke="none" 
	d="
M408.884521,184.001221 
	C408.881653,189.164688 409.013733,193.834930 408.839966,198.493790 
	C408.643311,203.766113 405.797394,206.491257 400.306458,206.897888 
	C400.306458,193.944839 399.470215,180.934235 400.537689,168.081757 
	C401.641571,154.790710 415.715698,146.765625 429.444336,150.287735 
	C441.658386,153.421265 448.808807,165.773315 445.063446,177.269150 
	C441.428772,188.425171 427.534271,195.267792 416.621307,191.276108 
	C412.178955,189.651215 410.554016,186.072983 411.596222,180.623703 
	C415.501038,181.487823 419.376251,182.908142 423.310211,183.095734 
	C430.895294,183.457458 436.838531,178.226624 437.157623,171.668610 
	C437.488525,164.868164 432.207306,159.152725 424.906342,158.409988 
	C416.811951,157.586533 409.803040,162.327560 409.112946,169.519211 
	C408.669006,174.145172 408.936035,178.839355 408.884521,184.001221 
z"/>
<path fill="#E32C2C" opacity="1.000000" stroke="none" 
	d="
M314.746033,149.806732 
	C327.850128,151.664658 336.408203,160.979111 335.620209,172.079987 
	C334.814178,183.435150 325.347595,191.777878 312.852661,192.144653 
	C299.940887,192.523666 289.870850,184.460129 288.556854,172.689926 
	C287.354004,161.914978 296.206360,151.425537 307.822327,149.975525 
	C309.955292,149.709274 312.135620,149.822586 314.746033,149.806732 
M298.098450,166.867722 
	C296.546021,170.760208 297.163879,174.358551 299.679382,177.628876 
	C305.488098,185.180527 318.078278,185.360535 324.135803,178.008774 
	C327.772095,173.595551 327.788849,168.389679 324.181061,163.933838 
	C317.461090,155.634262 304.810822,156.732330 298.098450,166.867722 
z"/>
<path fill="#E33131" opacity="1.000000" stroke="none" 
	d="
M457.210510,180.694031 
	C457.210632,167.627457 457.210632,155.024826 457.210632,141.941681 
	C451.192719,141.941681 445.734863,142.087799 440.288300,141.902588 
	C434.238525,141.696899 431.721497,139.265427 431.253479,133.408600 
	C451.628845,133.408600 471.979126,133.408600 492.364014,133.408600 
	C491.675568,139.342484 489.266754,141.678543 483.263031,141.897583 
	C477.794495,142.097092 472.312958,141.939850 466.292358,141.939850 
	C466.292358,158.699509 466.292358,175.097229 466.292358,191.459290 
	C459.863251,191.797699 457.480469,188.912643 457.210510,180.694031 
z"/>
<path fill="#E32C2C" opacity="1.000000" stroke="none" 
	d="
M501.484680,135.616135 
	C502.505920,137.695267 503.887299,139.487411 503.905212,141.293106 
	C504.071777,158.071426 504.003723,174.852066 504.003723,191.634842 
	C498.533386,191.551544 495.329956,188.945618 495.258514,183.577316 
	C495.037567,166.970184 495.177734,150.358246 495.177734,132.683334 
	C497.584717,133.741165 499.398529,134.538300 501.484680,135.616135 
z"/>
<path fill="#EC6D6D" opacity="1.000000" stroke="none" 
	d="
M567.476074,188.017853 
	C566.613464,187.285141 566.193481,186.546173 565.817505,185.541779 
	C567.772766,184.007034 569.566406,182.030426 571.631714,181.686737 
	C573.360474,181.399078 577.159058,181.482910 576.199463,184.949692 
	C575.725769,186.660965 573.048950,187.953430 571.123718,188.971466 
	C570.421021,189.343002 569.007751,188.370804 567.476074,188.017853 
z"/>
<path fill="#FEFEFE" opacity="1.000000" stroke="none" 
	d="
M432.141479,653.157837 
	C397.055634,657.089111 362.860016,654.437134 329.098450,646.040588 
	C284.885345,635.044800 245.391052,614.714417 210.411514,585.563843 
	C209.286453,584.626282 208.238647,583.595947 206.785461,582.272522 
	C248.888626,554.294495 294.439331,536.297913 344.651062,528.060059 
	C344.651062,558.205811 344.651062,588.047729 344.651062,618.399170 
	C347.110443,618.399170 348.898621,618.399170 350.686829,618.399170 
	C376.015289,618.399353 401.343750,618.409546 426.672211,618.396362 
	C446.038910,618.386353 457.091980,607.358154 457.105652,588.042297 
	C457.118408,570.045776 457.108124,552.049194 457.107971,534.052673 
	C457.107971,532.242432 457.107971,530.432251 457.107971,528.617432 
	C488.943604,529.165588 566.857483,559.735962 595.065186,582.795288 
	C547.846924,622.599548 494.036316,646.595398 432.141479,653.157837 
z"/>
<path fill="#FDFEFE" opacity="1.000000" stroke="none" 
	d="
M445.627869,586.648682 
	C445.025604,601.294006 439.227966,606.905762 425.120514,606.913330 
	C404.144653,606.924500 383.168823,606.916138 362.192963,606.916138 
	C360.399353,606.916138 358.605743,606.916138 356.482239,606.916138 
	C356.482239,580.538452 356.482239,554.653320 356.482239,528.384766 
	C385.955658,528.384766 415.474670,528.384766 445.628143,528.384766 
	C445.628143,547.663269 445.628143,566.924988 445.627869,586.648682 
M406.013977,557.169861 
	C399.206665,554.376892 393.555023,556.461365 391.895691,562.376953 
	C390.675049,566.728760 392.702667,571.388855 396.661499,573.330383 
	C400.679352,575.300842 405.654419,574.129944 408.316101,570.587341 
	C411.293030,566.625183 410.714844,562.160278 406.013977,557.169861 
z"/>
<path fill="#FDFEFE" opacity="1.000000" stroke="none" 
	d="
M388.536591,480.361938 
	C403.332611,471.838135 419.684448,480.191040 420.988068,496.786194 
	C421.466888,502.881714 421.065277,509.046387 421.065277,515.599243 
	C407.448334,515.599243 393.928131,515.599243 379.583710,515.599243 
	C380.312927,503.317169 376.382080,490.183014 388.536591,480.361938 
z"/>
<path fill="#FEFDFD" opacity="1.000000" stroke="none" 
	d="
M643.698059,600.697815 
	C641.284546,604.725220 639.656006,601.379822 637.773071,599.663452 
	C637.735474,599.255920 638.067505,598.923584 638.399597,598.981445 
	C640.046753,599.211121 641.361816,599.382996 642.927429,599.844849 
	C643.351318,600.322510 643.524658,600.510132 643.698059,600.697815 
z"/>
<path fill="#FEFDFD" opacity="1.000000" stroke="none" 
	d="
M645.095825,599.084106 
	C644.786011,599.524475 644.476257,599.964844 643.932251,600.551514 
	C643.524658,600.510132 643.351318,600.322510 643.193970,599.668030 
	C643.819214,599.151611 644.428406,599.101990 645.055664,599.051758 
	C645.073792,599.051086 645.095825,599.084106 645.095825,599.084106 
z"/>
<path fill="#FEFDFD" opacity="1.000000" stroke="none" 
	d="
M646.095642,598.104614 
	C645.938843,598.399719 645.762878,598.677917 645.341370,599.020142 
	C645.095825,599.084106 645.073792,599.051086 645.054871,598.748535 
	C645.375793,598.311096 645.715576,598.176208 646.055420,598.041321 
	C646.055420,598.041321 646.076538,598.087769 646.095642,598.104614 
z"/>
<path fill="#FEFDFD" opacity="1.000000" stroke="none" 
	d="
M637.565430,599.418030 
	C637.102051,599.395630 636.808838,599.211121 636.584045,598.647034 
	C636.794250,598.153137 636.935974,598.038757 637.308655,598.017029 
	C637.839233,598.300781 638.015198,598.572083 638.067505,598.923584 
	C638.067505,598.923584 637.735474,599.255920 637.565430,599.418030 
z"/>
<path fill="#FEFDFD" opacity="1.000000" stroke="none" 
	d="
M636.434570,598.432312 
	C635.952087,598.530457 635.734009,598.391113 635.465576,598.007996 
	C635.555237,597.627930 635.741760,597.418945 636.350952,597.107544 
	C636.926208,597.294556 637.027588,597.601013 637.077759,597.924377 
	C636.935974,598.038757 636.794250,598.153137 636.434570,598.432312 
z"/>
<path fill="#99A0A5" opacity="1.000000" stroke="none" 
	d="
M637.308655,598.017029 
	C637.027588,597.601013 636.926208,597.294556 636.639709,596.802307 
	C636.131531,592.884827 638.149536,590.881775 641.539368,591.006165 
	C645.273254,591.143188 646.272827,593.879211 645.902710,597.657837 
	C645.715576,598.176208 645.375793,598.311096 645.036743,598.749207 
	C644.428406,599.101990 643.819214,599.151611 642.943481,599.378052 
	C641.361816,599.382996 640.046753,599.211121 638.399597,598.981445 
	C638.015198,598.572083 637.839233,598.300781 637.308655,598.017029 
z"/>
<path fill="#E32F2F" opacity="1.000000" stroke="none" 
	d="
M220.275406,337.449097 
	C225.467590,330.265228 232.037323,327.308319 240.409058,329.584503 
	C247.784485,331.589813 252.361130,337.939331 253.208954,347.162415 
	C241.233810,347.162415 229.292816,347.162415 216.469055,347.162415 
	C217.762039,343.801819 218.923309,340.783600 220.275406,337.449097 
z"/>
<path fill="#000000" opacity="1.000000" stroke="none" 
	d="
M466.941345,703.148376 
	C466.247711,700.213135 465.564911,697.700745 464.951019,695.171631 
	C463.623352,689.701416 464.133453,689.059387 469.944672,689.007996 
	C475.357788,688.960144 480.337891,688.725525 484.368286,694.198975 
	C487.894379,698.987732 487.266754,703.769775 485.537231,707.790955 
	C484.439484,710.343201 481.837036,714.409424 476.856598,713.817139 
	C474.656281,713.555481 472.239777,715.111877 469.852234,715.864746 
	C468.896942,711.768555 467.940186,707.666077 466.941345,703.148376 
z"/>
<path fill="#000000" opacity="1.000000" stroke="none" 
	d="
M281.227173,674.666748 
	C283.906494,676.745667 286.459930,678.413940 288.518951,680.557129 
	C289.049011,681.108887 288.420013,683.479126 287.629730,684.448364 
	C285.955597,686.501770 284.229919,689.158447 280.849762,687.888306 
	C277.215363,686.522705 273.651886,684.968384 269.845764,683.409729 
	C271.225067,679.752075 272.526337,676.301392 274.104218,672.117310 
	C275.902130,672.728333 278.409698,673.580566 281.227173,674.666748 
z"/>
<path fill="#FEF9F9" opacity="1.000000" stroke="none" 
	d="
M537.022156,168.394867 
	C533.440063,168.394867 530.346741,168.394867 526.737244,168.394867 
	C527.334412,166.800095 527.616638,165.886276 528.009338,165.022736 
	C531.075928,158.280228 534.163757,151.547394 537.607910,144.018066 
	C541.427002,152.427933 544.886780,160.046692 548.677795,168.394852 
	C544.407471,168.394852 540.959167,168.394852 537.022156,168.394867 
z"/>
<path fill="#FEF9F9" opacity="1.000000" stroke="none" 
	d="
M298.250610,166.519592 
	C304.810822,156.732330 317.461090,155.634262 324.181061,163.933838 
	C327.788849,168.389679 327.772095,173.595551 324.135803,178.008774 
	C318.078278,185.360535 305.488098,185.180527 299.679382,177.628876 
	C297.163879,174.358551 296.546021,170.760208 298.250610,166.519592 
z"/>
<path fill="#6E777F" opacity="1.000000" stroke="none" 
	d="
M406.327820,557.413452 
	C410.714844,562.160278 411.293030,566.625183 408.316101,570.587341 
	C405.654419,574.129944 400.679352,575.300842 396.661499,573.330383 
	C392.702667,571.388855 390.675049,566.728760 391.895691,562.376953 
	C393.555023,556.461365 399.206665,554.376892 406.327820,557.413452 
z"/>
</svg>